<svg width="24" height="17" viewBox="0 0 24 17" fill="none" xmlns="http://www.w3.org/2000/svg">
<path d="M7.44198 10.8112C7.81804 11.1748 8.15675 11.5129 8.50922 11.8404C8.70176 12.0109 8.85441 12.2216 8.95632 12.4577C9.05822 12.6938 9.10689 12.9494 9.09886 13.2064C9.09165 14.2547 9.09886 15.3029 9.09558 16.3511C9.09558 16.4383 9.10999 16.5477 9.06413 16.6067C8.97765 16.7161 8.85514 16.8635 8.74245 16.8687C8.62977 16.874 8.48039 16.7423 8.4044 16.6322C8.34412 16.547 8.35657 16.4023 8.35592 16.2837C8.35264 15.257 8.34674 14.2298 8.35592 13.2045C8.36186 13.052 8.33446 12.9001 8.27562 12.7593C8.21678 12.6185 8.12791 12.4923 8.01524 12.3895C7.74007 12.1274 7.48063 11.8483 7.14127 11.5017C7.13013 11.7061 7.11899 11.8149 7.11899 11.9243C7.11899 13.3333 7.11899 14.7425 7.11899 16.152C7.11899 16.2391 7.11899 16.3269 7.11899 16.414C7.12554 16.6597 7.04758 16.8726 6.77635 16.8812C6.48939 16.8916 6.38326 16.6813 6.38326 16.4226C6.38326 14.8273 6.36622 13.2326 6.39046 11.64C6.40291 10.802 6.82614 10.1914 7.59398 9.84092C8.23864 9.54675 8.88921 9.26635 9.53519 8.97612C9.99379 8.76909 10.1006 8.11918 9.73566 7.76671C9.11917 7.16987 8.80469 6.43806 8.74507 5.58375C8.7359 5.45272 8.63763 5.32169 8.5767 5.19066C8.51577 5.05963 8.40178 4.92532 8.38605 4.78512C8.27337 3.7467 8.37885 2.75415 9.08837 1.91556C9.62101 1.28399 10.2932 0.899419 11.1128 0.817525C12.1905 0.714011 13.2558 0.713356 14.173 1.43337C14.971 2.06035 15.3745 2.88911 15.3955 3.89542C15.3998 4.10132 15.3334 4.30246 15.2075 4.4654C15.1375 4.53841 15.0837 4.62546 15.0498 4.72078C15.016 4.8161 15.0027 4.91752 15.0109 5.01835C15.0627 6.119 14.7757 7.08666 13.9293 7.85057C13.6587 8.09559 13.8173 8.78809 14.1599 8.94336C14.7751 9.22311 15.3916 9.50089 16.0146 9.76295C16.9482 10.156 17.3859 10.8531 17.3786 11.8594C17.3682 13.323 17.3786 14.7866 17.3786 16.2489C17.3786 16.3145 17.3786 16.38 17.3786 16.4455C17.3642 16.6931 17.2568 16.8851 16.9888 16.8753C16.7386 16.8668 16.6442 16.6787 16.6442 16.4422C16.6442 15.7102 16.6442 14.9784 16.6442 14.2468C16.6442 13.4606 16.6442 12.6744 16.6442 11.8883C16.6442 11.7939 16.6331 11.6989 16.6213 11.5024C16.2151 11.9282 15.8495 12.2787 15.5298 12.6679C15.4276 12.7924 15.4191 13.0177 15.4171 13.1973C15.4066 14.1911 15.4119 15.185 15.4119 16.1795C15.4119 16.2555 15.4119 16.3321 15.4119 16.4088C15.4047 16.665 15.3149 16.8825 15.026 16.8766C14.7554 16.8707 14.6716 16.6597 14.6709 16.418C14.6709 15.7628 14.6709 15.1077 14.6709 14.4525C14.6709 14.0483 14.6775 13.6441 14.6709 13.2398C14.6604 12.6843 14.8445 12.2198 15.2605 11.8404C15.6137 11.5168 15.9504 11.1761 16.3363 10.8027C16.1568 10.688 16.0317 10.5865 15.8895 10.5216C15.2756 10.2399 14.6539 9.97391 14.0413 9.68958C13.8756 9.61292 13.7707 9.63127 13.6436 9.76426C13.2591 10.1665 12.8483 10.5452 12.4722 10.9553C12.3547 11.088 12.2854 11.2566 12.2757 11.4336C12.2606 13.0394 12.2672 14.6438 12.2659 16.2509C12.2659 16.6905 12.1348 16.9008 11.8774 16.8877C11.6317 16.8746 11.519 16.6787 11.519 16.2522C11.519 14.6464 11.5242 13.042 11.5098 11.4349C11.5001 11.2579 11.4308 11.0893 11.3133 10.9566C10.9372 10.5459 10.5369 10.1574 10.134 9.77278C10.0619 9.70399 9.91124 9.63192 9.83983 9.66271C9.12834 9.9667 8.42536 10.2903 7.72238 10.6133C7.63263 10.6481 7.56973 10.7149 7.44198 10.8112ZM9.14013 4.68291C9.33668 4.55647 9.51488 4.44247 9.69177 4.32782C9.86866 4.21317 10.0849 4.20859 10.1733 4.39858C10.2388 4.52961 10.1897 4.73991 10.134 4.89387C10.0993 4.98952 9.96693 5.07994 9.85949 5.114C9.40678 5.2601 9.47884 5.60144 9.53519 5.93622C9.56435 6.06403 9.60356 6.18933 9.65246 6.31096C10.0534 7.49679 11.388 8.14145 12.6314 7.74378C13.793 7.37231 14.4914 6.16421 14.2149 4.84474C13.8041 4.84474 13.3894 4.86636 12.9773 4.84015C12.0483 4.78184 11.2084 4.48178 10.5127 3.84039C10.3404 3.68184 10.265 3.49382 10.4301 3.29465C10.609 3.07845 10.8075 3.13741 11.0027 3.29465C11.1611 3.42802 11.329 3.54955 11.5052 3.65826C12.446 4.20138 13.4622 4.19941 14.4927 4.03431C14.5582 4.02383 14.6486 3.87315 14.648 3.78863C14.641 3.30398 14.4693 2.83613 14.1612 2.46195C13.2944 1.38423 12.1132 1.35802 10.93 1.61615C9.57712 1.91556 8.89248 3.14724 9.14013 4.68291ZM10.7125 8.41203C10.6575 8.61971 10.5959 8.82609 10.5513 9.03639C10.5481 9.0666 10.5513 9.09713 10.5607 9.12603C10.5701 9.15492 10.5854 9.18152 10.6057 9.20411C11.0237 9.62996 11.4476 10.0499 11.876 10.4777C11.9566 10.403 12.013 10.3526 12.066 10.2995C12.4218 9.94508 12.7788 9.5913 13.1293 9.23228C13.155 9.20769 13.1755 9.1782 13.1895 9.14557C13.2036 9.11294 13.211 9.07782 13.2112 9.04229C13.1673 8.82478 13.0999 8.61251 13.0416 8.39762C12.1695 8.67802 11.7928 8.67933 10.7125 8.41203Z" fill="black"/>
<path d="M5.16062 11.8329C4.91363 12.0865 4.67057 12.3086 4.4642 12.5608C4.35723 12.689 4.29328 12.8476 4.28141 13.0142C4.26569 14.084 4.27355 15.1552 4.27289 16.2244C4.27289 16.3227 4.27289 16.421 4.26831 16.5192C4.26045 16.7426 4.11828 16.9018 3.92501 16.8678C3.84303 16.8438 3.76769 16.8013 3.70485 16.7434C3.642 16.6856 3.59336 16.614 3.56271 16.5343C3.50113 16.3109 3.54109 16.0587 3.54109 15.8182C3.54109 14.8899 3.53519 13.9609 3.54502 13.0325C3.55203 12.9363 3.53676 12.8398 3.5004 12.7505C3.46404 12.6612 3.40756 12.5815 3.33537 12.5176C3.10476 12.3027 2.89904 12.059 2.68022 11.829L0.921142 12.7239C1.22841 12.986 1.48523 13.2022 1.73222 13.4263C1.92666 13.5949 2.0796 13.8061 2.17914 14.0435C2.27867 14.2809 2.32213 14.538 2.30613 14.7949C2.28648 15.3406 2.29761 15.8877 2.30613 16.4327C2.30941 16.6915 2.20786 16.8796 1.94383 16.8789C1.67981 16.8783 1.57236 16.6883 1.57236 16.4314C1.57236 15.9512 1.57236 15.4703 1.57236 14.9901C1.57236 14.2773 1.40071 13.9753 0.725907 13.5363V13.8711C0.725907 14.6796 0.725907 15.4876 0.725907 16.2952C0.725907 16.7027 0.617807 16.8848 0.372126 16.8848C0.126444 16.8848 0 16.6974 0 16.2755V13.3588C0.00589636 12.7115 0.289577 12.228 0.861523 11.924C1.24675 11.7196 1.63657 11.523 2.03097 11.3344C2.26748 11.2223 2.38016 11.0553 2.35854 10.7926C2.34806 10.6399 2.38016 10.482 2.35003 10.334C2.32185 10.2029 2.26748 10.0404 2.16986 9.95527C1.51471 9.38136 1.17862 8.66463 1.18058 7.79328C1.18058 7.37988 1.16813 6.9573 1.2461 6.55635C1.32152 6.19518 1.46133 5.85054 1.65884 5.5389C1.83508 5.26112 2.1941 5.08685 2.33234 4.79989C2.46337 4.53193 2.36051 4.1657 2.4352 3.8604C2.60422 3.17053 3.34585 2.67458 4.02197 2.75516C4.85598 2.86064 5.45806 3.46207 5.43775 4.25218C5.42661 4.63283 5.52423 4.87327 5.81381 5.12681C6.34317 5.59 6.61047 6.21043 6.62882 6.92258C6.63755 7.27199 6.63755 7.62141 6.62882 7.97082C6.61047 8.77273 6.2639 9.4187 5.66967 9.93955C5.29165 10.2711 5.36765 11.1038 5.8007 11.3376C6.20624 11.5552 6.31893 11.7307 6.19904 11.9666C6.07914 12.2024 5.85639 12.1998 5.45151 11.9882C5.36634 11.9437 5.28117 11.8971 5.16062 11.8329ZM1.92549 7.83127C2.00673 9.11799 2.88856 9.91727 4.12745 9.82424C5.06956 9.75283 5.93436 8.84152 5.85246 7.99899C4.33841 8.02127 4.33841 8.02127 3.11852 7.22788L1.92549 7.83127ZM1.95694 7.04509C2.24062 6.85444 2.50006 6.70376 2.73198 6.52097C3.08314 6.23926 3.19058 6.25367 3.53323 6.55832C3.7799 6.78577 4.05843 6.97602 4.36003 7.12306C4.85401 7.34974 5.37682 7.39625 5.88981 7.1735C5.91929 5.99423 5.05449 5.08292 3.92042 5.07702C3.66153 5.07544 3.4049 5.12539 3.1655 5.22396C2.92609 5.32253 2.70869 5.46775 2.52595 5.65115C2.34322 5.83456 2.1988 6.05249 2.10111 6.29225C2.00342 6.53202 1.95441 6.78882 1.95694 7.04771V7.04509ZM3.91387 12.0563C4.3371 11.5879 5.00994 11.2859 4.68629 10.5364H3.12245C2.83156 11.299 3.50113 11.5918 3.91387 12.0563ZM3.11131 4.37863H4.70988C4.74919 4.04712 4.61161 3.78048 4.31286 3.60621C4.18726 3.52623 4.04063 3.48562 3.89179 3.48959C3.74295 3.49356 3.59869 3.54193 3.47754 3.62848C3.20631 3.8093 3.07331 4.06678 3.11131 4.37863Z" fill="black"/>
<path d="M23.2484 12.3582C22.647 12.7788 22.3482 13.2505 22.4065 13.9653C22.472 14.7351 22.4209 15.5147 22.4209 16.2904C22.424 16.3667 22.4225 16.443 22.4163 16.5191C22.3901 16.7464 22.2611 16.8925 22.0318 16.8801C21.8254 16.8683 21.6944 16.7346 21.695 16.5106C21.695 15.4296 21.6636 14.3486 21.7239 13.2689C21.7415 12.9465 21.9957 12.6216 22.1897 12.3294C22.3207 12.1269 22.5389 11.9789 22.7531 11.7725L20.5112 10.643C20.2681 10.9051 19.9995 11.1757 19.7591 11.4692C19.6876 11.5563 19.6706 11.7076 19.67 11.8295C19.6641 13.282 19.666 14.7344 19.666 16.1869C19.666 16.274 19.666 16.3618 19.666 16.449C19.6575 16.6999 19.5461 16.8886 19.2801 16.8794C19.0331 16.8709 18.9336 16.6914 18.9342 16.449C18.9342 15.5422 18.9342 14.6362 18.9342 13.7294C18.9342 13.107 18.9493 12.4847 18.9244 11.8623C18.9178 11.6886 18.8202 11.5013 18.7174 11.3532C18.6007 11.1855 18.4252 11.0597 18.2863 10.9064C18.1474 10.7531 18.0164 10.6253 17.7654 10.7655C17.6862 10.8101 17.4339 10.7 17.3795 10.5939C17.3252 10.4878 17.3678 10.2394 17.4569 10.1739C17.7399 9.96494 17.7798 9.69502 17.7484 9.39168C17.7403 9.28635 17.6998 9.18612 17.6324 9.10473C17.4059 8.8744 17.2297 8.5995 17.115 8.29748C17.0003 7.99545 16.9496 7.67288 16.9661 7.35023C16.972 7.17858 16.9661 7.03183 16.7539 6.97156C16.7114 6.94984 16.6746 6.9183 16.6467 6.87957C16.6188 6.84083 16.6005 6.79601 16.5934 6.74881C16.5351 5.90301 16.5141 5.06441 17.1332 4.36733C17.3349 4.12982 17.5827 3.93579 17.8617 3.79703C18.1407 3.65828 18.4449 3.5777 18.756 3.56019C19.5566 3.50778 20.3546 3.48288 21.049 3.99062C21.6819 4.45381 21.9859 5.09258 22.0272 5.86697C22.0444 6.10695 22.0428 6.3479 22.0226 6.58764C22.0095 6.71867 21.9499 6.91521 21.8614 6.94666C21.604 7.041 21.638 7.22576 21.6367 7.41771C21.6426 8.02494 21.4151 8.61126 21.0012 9.05559C20.6999 9.38317 20.7948 9.95577 21.1879 10.1569C21.7994 10.4688 22.4135 10.776 23.0302 11.0787C23.6854 11.4004 24.0051 11.9147 23.9998 12.6511C23.9913 13.8958 24.0044 15.1406 23.9887 16.3854C23.9887 16.5368 23.9094 16.7399 23.7961 16.827C23.5484 17.017 23.272 16.7995 23.272 16.4241C23.2687 15.212 23.272 14 23.272 12.7873C23.2667 12.657 23.2563 12.5299 23.2484 12.3582ZM20.8898 7.098C20.1174 6.85035 19.383 6.61581 18.6525 6.38258C18.6139 6.37013 18.5588 6.35506 18.5306 6.37209C18.2607 6.53392 17.9377 6.65577 17.7497 6.88704C17.6305 7.0338 17.696 7.34565 17.7091 7.58412C17.7635 8.55702 18.7475 9.25869 19.6883 9.00449C20.5334 8.77584 20.9789 8.0519 20.8885 7.098H20.8898ZM21.2679 6.28365C21.3989 5.15679 20.787 4.37782 19.7145 4.29068C19.3886 4.26742 19.0612 4.27334 18.7364 4.30837C17.7877 4.40206 17.1837 5.22362 17.3494 6.25089C17.622 6.06745 17.8886 5.92332 18.1127 5.72677C18.3518 5.51909 18.5569 5.48174 18.8445 5.63833C19.5913 6.04911 20.4024 6.23582 21.2666 6.28365H21.2679ZM18.4704 9.74415C18.4114 10.343 19.0528 10.4648 19.309 10.8756C19.5212 10.436 20.2065 10.3397 20.1128 9.74415H18.4704Z" fill="black"/>
</svg>
