<svg width="14" height="14" viewBox="0 0 14 14" fill="none" xmlns="http://www.w3.org/2000/svg">
<path d="M7.08084 12.6297C7.83833 12.6317 8.5887 12.4835 9.28852 12.1936C9.98842 11.9036 10.6239 11.4778 11.1581 10.9406C11.591 10.5057 11.952 10.0048 12.2277 9.45656L12.3075 9.29779L12.1304 9.31195C11.1252 9.39231 10.1146 9.25341 9.16836 8.90485C8.22217 8.5563 7.36296 8.00641 6.65014 7.29321C5.93912 6.57877 5.39072 5.71925 5.04242 4.7734C4.69409 3.8275 4.55409 2.81755 4.63197 1.81257L4.64562 1.63648L4.4876 1.71537C3.9383 1.98963 3.43681 2.35066 3.00243 2.78455L3.00238 2.7846C0.754761 5.03294 0.754761 8.69174 3.00238 10.9401C3.53681 11.4773 4.17243 11.9032 4.87248 12.1932C5.57252 12.4832 6.32311 12.6316 7.08084 12.6297ZM7.08084 12.6297C7.08076 12.6297 7.08067 12.6297 7.08059 12.6297L7.08085 12.5298L7.0811 12.6297C7.08102 12.6297 7.08093 12.6297 7.08084 12.6297ZM7.50931 6.43135L7.50952 6.43155C8.59506 7.51709 10.0407 8.11551 11.5795 8.11551C12.0848 8.11556 12.5879 8.04991 13.0763 7.92021C13.1794 7.8929 13.2878 7.89313 13.3907 7.92087C13.4937 7.94861 13.5876 8.00289 13.663 8.07828C13.7383 8.15367 13.7926 8.24754 13.8204 8.35049C13.8481 8.45341 13.8483 8.5618 13.821 8.66483C13.5055 9.85046 12.8834 10.9321 12.0172 11.8011L12.0171 11.8012C11.3705 12.4517 10.6011 12.9674 9.75372 13.3184C8.90631 13.6695 7.99767 13.849 7.08043 13.8464L7.07988 13.8464C6.16238 13.8488 5.25352 13.6692 4.40589 13.318C3.55825 12.9668 2.78869 12.451 2.14172 11.8005L2.14154 11.8003C-0.5805 9.07684 -0.580498 4.64582 2.14145 1.92379C3.01023 1.05831 4.09131 0.436494 5.27627 0.120721L5.27638 0.120691C5.37943 0.0931058 5.48792 0.0931028 5.59097 0.120683C5.69402 0.148262 5.788 0.202455 5.86349 0.277825C5.93899 0.353195 5.99333 0.447092 6.02108 0.550096C6.04883 0.6531 6.049 0.76159 6.02159 0.864683C5.76147 1.84164 5.76195 2.86972 6.02298 3.84643C6.28401 4.82316 6.79648 5.71441 7.50931 6.43135Z" fill="black" stroke="white" stroke-width="0.2"/>
</svg>
