<svg width="19" height="18" viewBox="0 0 19 18" fill="none" xmlns="http://www.w3.org/2000/svg">
<path d="M16.1786 13.75H5.85714L2.82143 1H1M3.42857 3.42857H18L16.1786 11.3214H5.25L3.42857 3.42857Z" stroke="black" stroke-linecap="round" stroke-linejoin="round"/>
<path d="M14.9643 17.3929C15.6349 17.3929 16.1786 16.8493 16.1786 16.1786C16.1786 15.508 15.6349 14.9644 14.9643 14.9644C14.2937 14.9644 13.75 15.508 13.75 16.1786C13.75 16.8493 14.2937 17.3929 14.9643 17.3929Z" stroke="black" stroke-linecap="round" stroke-linejoin="round"/>
<path d="M7.07146 17.3929C7.74209 17.3929 8.28575 16.8493 8.28575 16.1786C8.28575 15.508 7.74209 14.9644 7.07146 14.9644C6.40083 14.9644 5.85718 15.508 5.85718 16.1786C5.85718 16.8493 6.40083 17.3929 7.07146 17.3929Z" stroke="black" stroke-linecap="round" stroke-linejoin="round"/>
</svg>
