<svg xmlns="http://www.w3.org/2000/svg" viewBox="0 0 49.66 55.73"><g id="Layer_2" data-name="Layer 2"><g id="Layer_1-2" data-name="Layer 1"><path d="M18.45,53.93H8.22c-3.94,0-6.4-2.46-6.4-6.39V8.24c0-4,2.47-6.43,6.45-6.43H23.35c4,0,8,0,12,0a6.57,6.57,0,0,1,4.75,1.9A6.26,6.26,0,0,1,41.81,8.3c-.07,2.8-.05,5.64,0,8.38,0,1.18,0,2.36,0,3.54v.45c0,.38,0,4.1,0,4.44a.89.89,0,0,0,1,.94c.49,0,.78-.39.79-1V18.48c0-3.4,0-7.25,0-11A7.59,7.59,0,0,0,35.77,0H7.83A8.14,8.14,0,0,0,6.09.2,7.66,7.66,0,0,0,0,7.8Q0,14.88,0,22V33.87C0,38.58,0,43.28,0,48a7.74,7.74,0,0,0,7.8,7.73H18.2a2.42,2.42,0,0,0,.48,0,.89.89,0,0,0-.23-1.76Z"/><path d="M49.65,36.24c0-.14,0-.3,0-.45a5.31,5.31,0,0,0-3.74-4.43A5.81,5.81,0,0,0,44,31.05a5.28,5.28,0,0,0-3.77,1.69c-4,4-8,8-12.26,12.25a2.62,2.62,0,0,0-.58,1c-.56,1.77-1.09,3.54-1.64,5.35-.28,1-.57,1.9-.86,2.84s-.08,1.06.12,1.27a.74.74,0,0,0,.61.27,2.14,2.14,0,0,0,.61-.1l3.58-1,5-1.42a1.8,1.8,0,0,0,.72-.38c5-4.93,9-8.94,12.64-12.62a5.16,5.16,0,0,0,1.41-3.65Zm-6,6L34.91,51a2.65,2.65,0,0,1-1.12.64l-3.24.91-3.45,1,.68-2.38c.07-.26.15-.51.23-.77a11.6,11.6,0,0,0,.35-1.27,8.76,8.76,0,0,1,2.78-4.74c1.61-1.52,3.18-3.13,4.72-4.7l1.89-1.93,1-1,5.21,5.22Zm2.6-2.6-1,.78-4.92-4.94.74-1a3.72,3.72,0,0,1,3-1.62,3.34,3.34,0,0,1,.62.06,3.5,3.5,0,0,1,3,2.71A3.68,3.68,0,0,1,46.27,39.61Z"/><path d="M15.16,15.52H33.35a1.25,1.25,0,0,0,.88-.28.82.82,0,0,0,.21-.62c0-.59-.38-.9-1.12-.9h-23c-.78,0-.94.27-1.05.46a.81.81,0,0,0,0,.85,1.09,1.09,0,0,0,1,.49Z"/><path d="M10.14,24.65H33.37c.68,0,.84-.27.94-.43a.8.8,0,0,0,0-.92.85.85,0,0,0-.87-.46H10.31c-.77,0-.94.28-1,.47a.85.85,0,0,0,0,.87A1,1,0,0,0,10.14,24.65Z"/><path d="M25.23,32.89a.8.8,0,0,0-.21-.57,1.35,1.35,0,0,0-1-.33H10.3c-.43,0-1.14.12-1.15.88a.78.78,0,0,0,.21.62,1.34,1.34,0,0,0,.94.3H24.07C24.41,33.79,25.21,33.7,25.23,32.89Z"/></g></g></svg>