<svg width="20" height="20" viewBox="0 0 20 20" fill="none" xmlns="http://www.w3.org/2000/svg">
<path d="M14.6723 10.9903C14.625 11.072 14.5922 11.1693 14.5277 11.2338C11.7278 14.0386 8.92663 16.8418 6.12426 19.6435C5.83709 19.9312 5.52235 20.0888 5.12228 19.9327C4.98777 19.8742 4.86626 19.7895 4.76488 19.6835C3.27768 18.2036 1.79326 16.7204 0.311617 15.2339C-0.0988533 14.8229 -0.0946913 14.3495 0.31994 13.9333C1.81511 12.4357 6.40623 7.8446 7.90348 6.34977C8.12927 6.12399 8.36702 6.09798 8.53818 6.27382C8.70934 6.44966 8.67604 6.67856 8.44558 6.90903C8.01742 7.33771 4.49227 10.8592 4.08232 11.2666L6.76208 13.9422L10.8839 9.82342L8.16881 7.10516C8.09285 7.20348 7.9706 7.32626 7.86187 7.42407C7.68915 7.58326 7.52683 7.57806 7.37388 7.42407C7.3363 7.39035 7.30614 7.34919 7.28532 7.30319C7.26449 7.25719 7.25346 7.20737 7.25292 7.15688C7.25239 7.10639 7.26235 7.05635 7.28219 7.00992C7.30203 6.96349 7.3313 6.92169 7.36816 6.88718C8.17401 6.07456 8.97414 5.25518 9.80497 4.46858C10.1691 4.12626 10.6306 4.01649 11.1368 4.13927C11.6159 4.25528 12.1018 4.34424 12.5815 4.4587C12.6862 4.48772 12.7966 4.48892 12.9019 4.46219C13.0072 4.43545 13.1037 4.38171 13.1818 4.30627C13.3171 4.18453 13.4508 4.06019 13.5793 3.93169C14.7453 2.76774 15.9107 1.6031 17.0753 0.437756C17.6476 -0.134508 18.0529 -0.13919 18.621 0.428392C18.9581 0.765508 19.2952 1.1028 19.6323 1.44026C20.1239 1.93293 20.1234 2.37669 19.6261 2.87612C18.4496 4.05534 17.2723 5.23247 16.0942 6.40752C16.039 6.46266 15.9901 6.52301 15.9282 6.57243C15.564 6.87625 15.4485 7.23366 15.6041 7.70344C15.7289 8.07905 15.7732 8.48068 15.8668 8.86721C15.9709 9.28913 15.8809 9.66994 15.6696 10.0388C15.6048 10.1477 15.5679 10.2711 15.5625 10.3978C15.5541 11.4294 15.5625 12.461 15.5541 13.4932C15.5493 13.5606 15.5626 13.6281 15.5926 13.6886C15.6226 13.7492 15.6682 13.8006 15.7248 13.8376C15.9672 14.0197 16.193 14.2215 16.4261 14.4182C16.5204 14.4951 16.5959 14.5925 16.6467 14.7031C16.6976 14.8136 16.7225 14.9343 16.7195 15.056C16.7195 16.0361 16.7226 17.0157 16.7195 17.9954C16.7169 18.4017 16.4386 18.6857 16.0343 18.6914C15.4537 18.7005 14.8728 18.7005 14.2915 18.6914C13.905 18.6857 13.6095 18.4074 13.6048 18.0151C13.5928 17.0183 13.5845 16.0205 13.6152 15.0243C13.6215 14.8162 13.789 14.6081 13.9086 14.4156C13.98 14.3163 14.0747 14.2361 14.1844 14.182C14.7015 13.8959 14.8487 13.4677 14.7899 12.8918C14.7379 12.3679 14.7795 11.8352 14.7785 11.3061C14.7785 11.2234 14.7701 11.1407 14.766 11.0579L14.6723 10.9903ZM14.0735 4.55754C13.9476 4.67251 13.8753 4.73442 13.8072 4.80101C13.3733 5.22501 12.8707 5.35455 12.2792 5.1964C11.8372 5.07405 11.3881 4.97919 10.9344 4.91235C10.7482 4.88633 10.4849 4.92015 10.3595 5.03668C9.83098 5.52987 9.34091 6.06468 8.80246 6.61925C8.87671 6.66958 8.94761 6.72467 9.01472 6.78417C9.89358 7.65887 10.7707 8.53495 11.6461 9.41243C11.9749 9.74122 11.9749 9.88584 11.6461 10.2141C10.1506 11.71 8.65471 13.2055 7.1585 14.7007C6.81514 15.0435 6.67624 15.0451 6.33912 14.7085L3.6911 12.0599C3.62659 11.9954 3.55948 11.9335 3.54803 11.9231L0.870355 14.6029L5.44483 19.1857L6.14507 18.4735C6.09305 18.4162 6.02802 18.347 5.96195 18.2799C5.67686 17.9985 4.70349 17.034 4.43036 16.7452C4.27429 16.5772 4.28313 16.3556 4.43973 16.2104C4.59632 16.0653 4.78204 16.0543 4.95997 16.1891C5.03409 16.2496 5.10365 16.3155 5.16806 16.3863C5.45003 16.676 6.4182 17.6551 6.74543 17.9938C6.80708 17.8988 6.87486 17.8079 6.94833 17.7217C9.11045 15.5565 11.274 13.3924 13.4388 11.2296C13.8987 10.7697 14.355 10.3067 14.8196 9.85151C15.0797 9.59139 15.1884 9.31046 15.0911 8.93849C14.9684 8.47027 14.883 7.99217 14.779 7.51927C14.6859 7.10308 14.7889 6.73007 15.0495 6.39867C15.164 6.25301 15.2893 6.11566 15.4428 5.93566C15.1187 5.93566 14.8445 5.9393 14.5699 5.93566C14.2244 5.92994 14.0839 5.78843 14.0782 5.44091C14.0699 5.16518 14.0735 4.89154 14.0735 4.55754ZM16.2065 2.41415C15.7804 2.83919 15.3637 3.25382 14.9496 3.67157C14.909 3.71215 14.8601 3.7699 14.8591 3.82036C14.8523 4.25736 14.8549 4.69488 14.8549 5.15322C15.3164 5.15322 15.7394 5.15322 16.1618 5.15322C16.2129 5.15088 16.2615 5.13062 16.2991 5.09599C16.7346 4.66211 17.1653 4.22719 17.5904 3.80267C17.1263 3.33446 16.6753 2.88289 16.2076 2.41415H16.2065ZM14.677 14.786C14.432 14.8973 14.3618 15.1356 14.3737 15.454C14.3977 16.0949 14.381 16.7369 14.381 17.3789V17.8934H15.9417C15.9417 17.0501 15.9272 16.2286 15.9495 15.4046C15.9584 15.0883 15.8684 14.8781 15.6546 14.7876C15.4621 14.9072 15.3128 15.0726 15.1634 15.0726C15.0141 15.0726 14.8664 14.9056 14.677 14.786ZM19.1667 2.1816L17.8328 0.843024L16.8402 1.83148L18.1684 3.16382L19.1667 2.1816Z" fill="black"/>
</svg>
