<svg xmlns="http://www.w3.org/2000/svg" viewBox="0 0 47.27 52.31"><g id="Layer_2" data-name="Layer 2"><g id="Layer_1-2" data-name="Layer 1"><path d="M46.88,28.4a3.46,3.46,0,0,0-3.94-2.07A12.37,12.37,0,0,0,41,27v-12c0-1.07,0-5.27,0-6a3.27,3.27,0,0,0-2.7-3.22,8.46,8.46,0,0,0-2.84,0,3.35,3.35,0,0,0-2.73,3.62q0,11.05,0,22.12a1.91,1.91,0,0,1,0,.54.59.59,0,0,1-.28.38,9.7,9.7,0,0,1-1.09.2v-.9c0-4.95,0-9.89,0-14.84a3.53,3.53,0,0,0-3.43-3.86c-.34,0-.68,0-1,0A3.51,3.51,0,0,0,23,16.94q0,3.45,0,6.88a.72.72,0,0,1-.47.79c-.29.12-.56.27-.94.46,0-.78,0-1.48,0-2.17a3.2,3.2,0,0,0-3.5-3.52h-1.3a3.17,3.17,0,0,0-3.48,3.51c0,2,0,4,0,6.06,0,.23-.1.59-.27.67A20.8,20.8,0,0,1,10,31c-2.15.71-4.36,1.23-6.5,1.94A4.67,4.67,0,0,0,.35,38c.21,1.2,1.72,6.89,2,8.08a1.21,1.21,0,0,0,.05.18c.21.81.41,1.63.63,2.43A4.67,4.67,0,0,0,8.2,52.25c2-.34,3.9-.81,5.82-1.34a3.93,3.93,0,0,0,2.75-2.54,22,22,0,0,0,.58-2.91l.38-.11c4.44-1.09,8.86-2.27,13.33-3.23a16.75,16.75,0,0,0,8.64-4.26,7.59,7.59,0,0,1,.68-.57c1.82-1.49,3.65-3,5.46-4.5A3.47,3.47,0,0,0,46.88,28.4ZM37.27,7.24a2,2,0,0,1,2.2,2.12c0,.62,0,4.64,0,5.7v.09c0,4.16,0,8.31,0,12.46a1.27,1.27,0,0,1-.39.91c-1.3,1-2.65,1.91-4,2.84a8,8,0,0,1-.86.47V10.29C34.23,7.7,34.71,7.22,37.27,7.24Zm-12.7,9.24a1.8,1.8,0,0,1,1.63-1.81,8,8,0,0,1,1.83,0,1.86,1.86,0,0,1,1.73,1.87c0,.34,0,.68,0,1V32.68h-5.2c.44-.38.72-.65,1-.88a7.53,7.53,0,0,0,3-4.46,3,3,0,0,0-3.75-3.9l-.34,0C24.55,21.1,24.53,18.79,24.57,16.48Zm-9.7,6.05A1.52,1.52,0,0,1,16.41,21c.72,0,1.45,0,2.17,0a1.47,1.47,0,0,1,1.48,1.47c0,1.05,0,2.09,0,3.14a.63.63,0,0,1-.2.45l-5,2.67V24C14.87,23.53,14.85,23,14.87,22.53ZM12.92,49.65c-1.45.35-2.91.68-4.37,1A3.17,3.17,0,0,1,4.5,48.13c-.3-1.12-.59-2.24-.89-3.35l-.06-.19C3.09,42.74,2.24,39.31,2,38.67a3.41,3.41,0,0,1,2.56-4.48q2.7-.69,5.35-1.53c.57-.17.78,0,1,.49,1.46,4,3,7.94,4.44,11.9A3.42,3.42,0,0,1,12.92,49.65ZM44.66,31.79c-1.81,1.5-3.64,3-5.46,4.49-4.24,3.48-3.45,3.09-9.1,4.46L17.17,43.9l-.56.11L12.09,32l.48-.31c4-2.14,8.08-4.3,12.13-6.42A2.48,2.48,0,0,1,26,24.9a1.43,1.43,0,0,1,1.18,1.82A6.12,6.12,0,0,1,25,30.34a9.73,9.73,0,0,0-1.29,1.1c-.86.93-.39,2.66.82,2.72,3,.16,5.95.49,8.85-.36a10.65,10.65,0,0,0,2.9-1.45c2-1.32,3.93-2.75,5.91-4.12a2.16,2.16,0,0,1,3.27.67A2.22,2.22,0,0,1,44.66,31.79Z"/><path d="M.94,24.26a2.25,2.25,0,0,0,3.27-.4c3.49-3.51,7-7,10.45-10.54a.76.76,0,0,1,1.14-.15c.49.31,1,.55,1.56.82a2.44,2.44,0,0,0,3.27-.49l5.24-5.05c.15-.15.32-.28.52-.45.06.36.09.63.15.89a2.21,2.21,0,0,0,2.4,2,2.31,2.31,0,0,0,2.19-2.35c0-2.16,0-4.31,0-6.47A2.06,2.06,0,0,0,29,0c-2.16,0-4.31,0-6.47,0A2.32,2.32,0,0,0,20.32,2.3a2.14,2.14,0,0,0,1.94,2.37l.59.14L18.33,9.17l-2.15-1.1a2.49,2.49,0,0,0-3.47.54L1,20.4a4.64,4.64,0,0,0-.59.66A2.3,2.3,0,0,0,.94,24.26Zm1-2.65Q8,15.53,14,9.48a.92.92,0,0,1,1.22-.19c.86.45,1.74.87,2.59,1.35a1.05,1.05,0,0,0,1.44-.22c1.94-1.89,3.89-3.75,5.83-5.62.31-.3.68-.59.46-1.1s-.68-.53-1.14-.53-1.09,0-1.64,0a.78.78,0,0,1-.9-.8c0-.53.37-.81.89-.83.7,0,1.41,0,2.11,0,1.2,0,2.4,0,3.61,0,.94,0,1.12.18,1.12,1.09s0,1.86,0,2.79,0,2,0,3a.82.82,0,0,1-.77.94C28.37,9.41,28,9,28,8.43s0-1.31,0-2c0-.42,0-.93-.47-1a1.45,1.45,0,0,0-1,.34c-2.28,2.15-4.52,4.33-6.78,6.5-.7.68-.85.7-1.72.25s-1.47-.71-2.17-1.12a1.14,1.14,0,0,0-1.62.23Q8.87,17,3.56,22.34c-.14.15-.28.3-.43.44-.51.5-1,.56-1.35.19S1.44,22.14,2,21.61Z"/><path d="M9.53,42.83a3,3,0,0,0,0,6,3,3,0,0,0,0-6Zm0,4.48a1.47,1.47,0,0,1-.06-2.93A1.49,1.49,0,0,1,11,45.85,1.51,1.51,0,0,1,9.54,47.31Z"/></g></g></svg>