<svg width="29" height="53" viewBox="0 0 29 53" fill="none" xmlns="http://www.w3.org/2000/svg">
<path d="M26.7393 18.6509C26.5134 17.6116 26.3063 16.6552 26.0879 15.6989C25.1189 11.4491 24.15 7.19927 23.181 2.94949C22.974 2.07593 22.974 2.07593 22.0853 2.07217C21.0273 2.07217 19.973 2.07217 18.9149 2.07217C18.1807 2.06464 17.7025 1.64292 17.7025 1.04423C17.7025 0.445548 18.1807 0.0050062 18.9074 0.0050062C20.47 0.0050062 22.0326 0.0050062 23.599 0.0050062C24.3521 0.0050062 24.6721 0.245987 24.8453 1.00282C25.5406 4.01507 26.2284 7.03485 26.9087 10.0622C27.5225 12.7694 28.2454 15.4579 28.7161 18.1915C29.6423 23.5269 27.963 28.0227 23.9605 31.645C22.3124 33.1295 20.319 34.178 18.1619 34.6949C18.0721 34.6999 17.9844 34.7243 17.905 34.7665C17.8256 34.8087 17.7563 34.8677 17.7018 34.9393C17.6474 35.0109 17.6092 35.0934 17.5898 35.1813C17.5704 35.2691 17.5703 35.3601 17.5896 35.4479C17.6046 39.1505 17.6046 42.8518 17.5896 46.5519C17.5705 46.7531 17.62 46.9548 17.7301 47.1243C17.8401 47.2938 18.0042 47.4212 18.1958 47.4857C20.3797 48.5513 22.5522 49.6545 24.7286 50.7427C24.9364 50.8381 25.1388 50.945 25.3348 51.0627C25.5398 51.1734 25.7002 51.3517 25.7887 51.5672C25.8773 51.7827 25.8885 52.0222 25.8205 52.245C25.7601 52.4564 25.6343 52.6431 25.4611 52.7784C25.2879 52.9137 25.0763 52.9906 24.8566 52.9981C24.7173 52.9981 24.578 52.9981 24.4424 52.9981H4.22644C3.98372 53.0128 3.74355 52.9417 3.54803 52.7971C3.35251 52.6525 3.21411 52.4438 3.15708 52.2074C3.08668 51.9662 3.11099 51.7071 3.22505 51.4832C3.33911 51.2593 3.53431 51.0874 3.77083 51.0025C5.34473 50.1929 6.92617 49.4097 8.5076 48.619C9.32844 48.2048 10.1455 47.7869 10.9739 47.3953C11.1113 47.3413 11.2269 47.2433 11.3025 47.1165C11.3781 46.9898 11.4096 46.8415 11.3918 46.695C11.3918 42.8995 11.3918 39.1078 11.3918 35.3124C11.3918 34.7514 11.0153 34.7589 10.7028 34.6648C6.26724 33.4034 3.08178 30.6585 1.20289 26.4375C-0.148864 23.3914 -0.303242 20.2323 0.449821 16.9979C1.66978 11.7716 2.84456 6.5303 4.0457 1.30028C4.108 0.986533 4.2212 0.685093 4.38081 0.407895C4.4817 0.26801 4.61762 0.157139 4.77492 0.0864184C4.93222 0.0156983 5.10537 -0.0123794 5.27696 0.0050062C6.96759 0.0050062 17.3581 0.00491427 19.0149 0.00491427C19.7265 0.00491427 20.1445 0.400273 20.1445 1.01402C20.1445 1.62777 19.7227 2.05701 18.9697 2.06454C17.7271 2.06454 7.79219 2.06464 6.5534 2.06464C6.14298 2.06464 5.96601 2.155 5.86435 2.59931C5.09622 6.13871 4.27162 9.66681 3.46208 13.1836C3.15332 14.5278 2.85963 15.8721 2.53581 17.2087C2.47862 17.3623 2.47304 17.5302 2.51993 17.6872C2.56681 17.8441 2.6636 17.9815 2.79561 18.0785C3.84378 19.0483 5.04309 19.8406 6.34631 20.4243C6.92207 20.6618 7.54072 20.7778 8.16341 20.7648C8.78611 20.7518 9.3994 20.6103 9.96478 20.349C10.9136 19.9461 11.8248 19.4604 12.7549 19.0086C14.0313 18.3835 15.2852 17.6982 16.5917 17.1485C18.5422 16.3239 20.5529 16.4293 22.5259 17.0657C23.8324 17.4874 25.1014 18.0371 26.3853 18.5266L26.7393 18.6509ZM2.0915 20.2436C2.06851 20.6625 2.06851 21.0823 2.0915 21.5012C2.16435 22.2074 2.27749 22.9089 2.43038 23.6023C3.15606 26.5754 4.95 29.1778 7.47051 30.9137C9.99102 32.6496 13.062 33.3977 16.0985 33.0155C18.9318 32.62 21.5455 31.2698 23.5076 29.1879C25.4697 27.106 26.6628 24.417 26.8899 21.5652C26.9203 21.4331 26.9024 21.2945 26.8396 21.1743C26.7768 21.0542 26.6731 20.9605 26.5472 20.9101C25.0036 20.1008 23.3843 19.445 21.7126 18.9521C20.0279 18.4291 18.2076 18.5636 16.6181 19.3286C15.9742 19.6374 15.3417 19.9574 14.7091 20.2812C13.6473 20.8234 12.6005 21.4108 11.5312 21.9229C10.6463 22.3642 9.69248 22.6508 8.71093 22.7701C6.95629 22.9659 5.40875 22.3936 3.95157 21.4974C3.34912 21.136 2.78055 20.7143 2.0915 20.2436ZM20.3382 50.882C20.086 50.7389 19.9617 50.6749 19.86 50.6147C18.7756 50.0687 17.7063 49.4851 16.5955 48.9956C16.2498 48.875 15.9553 48.6405 15.7604 48.3306C15.5654 48.0207 15.4815 47.6537 15.5224 47.2899C15.5563 43.5697 15.5224 39.8496 15.5224 36.1295C15.5224 35.945 15.5224 35.7529 15.5224 35.576C15.5224 35.2936 15.4283 35.158 15.1233 35.1731C14.7467 35.1957 14.389 35.1731 14.02 35.1731C13.4703 35.1731 13.4665 35.1731 13.4552 35.7454C13.4552 35.9073 13.4552 36.0655 13.4552 36.2274C13.4552 39.9023 13.4326 43.5773 13.4552 47.2522C13.4973 47.6269 13.4107 48.0048 13.2095 48.3237C13.0083 48.6426 12.7045 48.8835 12.3482 49.0069C11.2789 49.4775 10.2509 50.0386 9.20419 50.5657C9.05734 50.641 8.92555 50.7389 8.70716 50.8745L20.3382 50.882Z" fill="black"/>
</svg>

