<svg width="63" height="43" viewBox="0 0 63 43" fill="none" xmlns="http://www.w3.org/2000/svg">
<path d="M19.5349 26.3626C20.522 27.317 21.4112 28.2044 22.3364 29.0643C22.8418 29.5117 23.2425 30.0649 23.51 30.6846C23.7775 31.3044 23.9053 31.9754 23.8842 32.6501C23.8653 35.4017 23.8842 38.1533 23.8756 40.9049C23.8756 41.1337 23.9134 41.4209 23.793 41.5757C23.566 41.8629 23.2444 42.2498 22.9486 42.2636C22.6528 42.2773 22.2607 41.9317 22.0612 41.6427C21.903 41.4192 21.9357 41.0391 21.934 40.7278C21.9254 38.0329 21.9099 35.3363 21.934 32.6449C21.9496 32.2447 21.8777 31.8459 21.7232 31.4764C21.5687 31.1069 21.3355 30.7755 21.0397 30.5055C20.3174 29.8176 19.6364 29.085 18.7455 28.1752C18.7163 28.7118 18.687 28.9973 18.687 29.2845C18.687 32.9831 18.687 36.6823 18.687 40.3821C18.687 40.6109 18.687 40.8413 18.687 41.07C18.7042 41.715 18.4996 42.2739 17.7876 42.2962C17.0343 42.3238 16.7557 41.7717 16.7557 41.0924C16.7557 36.9048 16.711 32.7188 16.7747 28.5381C16.8073 26.3385 17.9183 24.7357 19.9339 23.8156C21.6261 23.0434 23.3339 22.3073 25.0296 21.5455C26.2334 21.002 26.5137 19.296 25.5558 18.3708C23.9375 16.8041 23.112 14.8831 22.9555 12.6405C22.9314 12.2966 22.6735 11.9526 22.5135 11.6087C22.3536 11.2647 22.0544 10.9122 22.0131 10.5441C21.7173 7.81828 21.9942 5.21283 23.8567 3.01152C25.2548 1.35366 27.0193 0.344159 29.1708 0.129188C31.9998 -0.142536 34.7961 -0.144255 37.2038 1.74577C39.2985 3.39159 40.3579 5.5671 40.4129 8.20867C40.4241 8.74914 40.2499 9.27715 39.9193 9.70487C39.7355 9.89652 39.5945 10.125 39.5055 10.3752C39.4166 10.6254 39.3818 10.8917 39.4034 11.1564C39.5393 14.0456 38.786 16.5857 36.5641 18.5909C35.8538 19.2341 36.27 21.0519 37.1694 21.4595C38.7843 22.1938 40.4026 22.923 42.0381 23.6109C44.4888 24.6428 45.6376 26.4726 45.6187 29.1142C45.5911 32.9562 45.6187 36.7981 45.6187 40.6367C45.6187 40.8086 45.6187 40.9806 45.6187 41.1526C45.5808 41.8027 45.2988 42.3066 44.5954 42.2808C43.9384 42.2584 43.6908 41.7648 43.6908 41.144C43.6908 39.2224 43.6908 37.3015 43.6908 35.381C43.6908 33.3173 43.6908 31.2536 43.6908 29.1899C43.6908 28.9422 43.6616 28.6929 43.6306 28.1769C42.5643 29.2948 41.6047 30.2149 40.7655 31.2364C40.4972 31.5632 40.4748 32.1548 40.4697 32.626C40.4421 35.2349 40.4559 37.8438 40.4559 40.4544C40.4559 40.6539 40.4559 40.8551 40.4559 41.0563C40.437 41.7287 40.2014 42.2997 39.443 42.2842C38.7327 42.2687 38.5126 41.715 38.5108 41.0804C38.5108 39.3606 38.5108 37.6408 38.5108 35.9211C38.5108 34.86 38.528 33.7989 38.5108 32.7378C38.4833 31.2794 38.9666 30.0601 40.0586 29.0643C40.9856 28.2148 41.8696 27.3205 42.8825 26.3402C42.4113 26.0393 42.0828 25.7727 41.7096 25.6024C40.0982 24.8629 38.4661 24.1647 36.8581 23.4183C36.423 23.2171 36.1479 23.2653 35.8142 23.6144C34.8047 24.6703 33.7264 25.6643 32.7393 26.7409C32.4307 27.0893 32.2489 27.5317 32.2234 27.9963C32.1838 32.2115 32.201 36.4232 32.1976 40.6418C32.1976 41.7958 31.8536 42.3478 31.1777 42.3134C30.5328 42.279 30.237 41.7648 30.237 40.6453C30.237 36.4301 30.2508 32.2184 30.2129 27.9998C30.1874 27.5351 30.0056 27.0927 29.697 26.7444C28.7099 25.6661 27.6591 24.6462 26.6014 23.6367C26.4123 23.4562 26.0167 23.267 25.8293 23.3478C23.9616 24.1458 22.1163 24.9954 20.271 25.8432C20.0353 25.9343 19.8702 26.1098 19.5349 26.3626ZM23.9925 10.2758C24.5085 9.94392 24.9762 9.64468 25.4406 9.34372C25.9049 9.04276 26.4724 9.03072 26.7046 9.52945C26.8766 9.87341 26.7476 10.4255 26.6014 10.8296C26.5103 11.0807 26.1629 11.318 25.8808 11.4074C24.6925 11.791 24.8817 12.687 25.0296 13.5658C25.1061 13.9013 25.209 14.2302 25.3374 14.5495C26.3899 17.6622 29.8931 19.3545 33.1572 18.3106C36.2063 17.3355 38.0396 14.1642 37.3139 10.7006C36.2356 10.7006 35.147 10.7574 34.0652 10.6886C31.6266 10.5355 29.4219 9.74786 27.5955 8.06421C27.1432 7.64803 26.9454 7.15445 27.3788 6.63164C27.8483 6.06412 28.3694 6.2189 28.8818 6.63164C29.2975 6.98175 29.7384 7.30077 30.2009 7.58611C32.6705 9.0118 35.3379 9.00664 38.0431 8.57326C38.215 8.54574 38.4524 8.1502 38.4506 7.92835C38.4322 6.65614 37.9816 5.42804 37.1729 4.44581C34.8976 1.61679 31.7969 1.548 28.691 2.22559C25.1396 3.01152 23.3425 6.24469 23.9925 10.2758ZM28.12 20.0648C27.9755 20.6099 27.8139 21.1517 27.6969 21.7037C27.6886 21.783 27.6969 21.8632 27.7215 21.939C27.7461 22.0148 27.7864 22.0847 27.8397 22.144C28.9369 23.2618 30.0496 24.3642 31.1743 25.4872C31.3858 25.2912 31.5337 25.1587 31.673 25.0194C32.6069 24.089 33.5441 23.1604 34.4642 22.2179C34.5316 22.1534 34.5853 22.076 34.6222 21.9903C34.6591 21.9047 34.6785 21.8125 34.6792 21.7192C34.564 21.1482 34.3868 20.591 34.2338 20.0269C31.9448 20.763 30.9559 20.7664 28.12 20.0648Z" fill="black"/>
<path d="M13.5466 29.0455C12.8983 29.7111 12.2602 30.2941 11.7185 30.9562C11.4377 31.2927 11.2699 31.7091 11.2387 32.1463C11.1974 34.9547 11.2181 37.7665 11.2163 40.5731C11.2163 40.8311 11.2163 41.0891 11.2043 41.347C11.1837 41.9335 10.8105 42.3514 10.3031 42.262C10.088 42.1991 9.89017 42.0874 9.72522 41.9355C9.56026 41.7837 9.43258 41.5959 9.35211 41.3866C9.19046 40.8002 9.29536 40.138 9.29536 39.5069C9.29536 37.07 9.27988 34.6313 9.30568 32.1944C9.32408 31.942 9.28399 31.6887 9.18854 31.4542C9.09309 31.2198 8.94486 31.0105 8.75535 30.8427C8.14999 30.2786 7.60999 29.6388 7.03558 29.0352L2.418 31.3844C3.22457 32.0723 3.89872 32.6398 4.54707 33.228C5.05749 33.6707 5.45895 34.2251 5.72023 34.8482C5.98152 35.4713 6.09559 36.1463 6.05359 36.8206C6.002 38.2532 6.03124 39.6892 6.05359 41.12C6.06219 41.7993 5.79563 42.2929 5.10256 42.2912C4.40949 42.2895 4.12745 41.7907 4.12745 41.1166C4.12745 39.856 4.12745 38.5937 4.12745 37.3331C4.12745 35.462 3.67687 34.6692 1.90551 33.5169V34.3957C1.90551 36.5179 1.90551 38.639 1.90551 40.7589C1.90551 41.8286 1.62174 42.3067 0.97683 42.3067C0.331916 42.3067 0 41.8148 0 40.7073V33.0509C0.0154779 31.3517 0.760139 30.0825 2.2615 29.2846C3.27272 28.748 4.29599 28.2321 5.33129 27.7368C5.95213 27.4427 6.24793 27.0042 6.19117 26.3145C6.16366 25.9138 6.24793 25.4994 6.16882 25.1107C6.09487 24.7667 5.95213 24.3402 5.69588 24.1167C3.97611 22.6101 3.09387 20.7287 3.09903 18.4414C3.09903 17.3562 3.06635 16.247 3.271 15.1945C3.46898 14.2464 3.83598 13.3417 4.35446 12.5237C4.81708 11.7945 5.75951 11.337 6.12238 10.5838C6.46634 9.8804 6.19633 8.91904 6.39239 8.11763C6.83609 6.30671 8.78287 5.00485 10.5577 5.21638C12.7469 5.49326 14.3274 7.07201 14.2741 9.14605C14.2449 10.1452 14.5011 10.7764 15.2612 11.4419C16.6508 12.6578 17.3525 14.2864 17.4006 16.1558C17.4236 17.0731 17.4236 17.9903 17.4006 18.9075C17.3525 21.0125 16.4427 22.7082 14.8829 24.0754C13.8906 24.9456 14.0901 27.1314 15.2269 27.7454C16.2914 28.3163 16.5872 28.7772 16.2725 29.3964C15.9578 30.0155 15.373 30.0086 14.3102 29.4531C14.0866 29.3362 13.8631 29.2141 13.5466 29.0455ZM5.05441 18.5412C5.26766 21.9188 7.58247 24.0169 10.8346 23.7727C13.3076 23.5852 15.5777 21.193 15.3627 18.9814C11.3883 19.0399 11.3883 19.0399 8.18611 16.9573L5.05441 18.5412ZM5.13696 16.4774C5.88162 15.977 6.56265 15.5814 7.17144 15.1016C8.09324 14.3621 8.37528 14.4 9.27472 15.1996C9.92224 15.7967 10.6534 16.2961 11.4451 16.6821C12.7418 17.2771 14.1142 17.3992 15.4607 16.8145C15.5381 13.7189 13.268 11.3267 10.2911 11.3112C9.6115 11.3071 8.93787 11.4382 8.30943 11.697C7.68099 11.9557 7.11031 12.3369 6.63063 12.8183C6.15095 13.2998 5.77185 13.8719 5.51541 14.5012C5.25898 15.1306 5.13033 15.8047 5.13696 16.4843V16.4774ZM10.2739 29.632C11.3849 28.4023 13.1511 27.6095 12.3015 25.6421H8.19643C7.43285 27.6439 9.19046 28.4126 10.2739 29.632ZM8.16719 9.47797H12.3634C12.4666 8.60777 12.1055 7.90782 11.3213 7.45036C10.9916 7.24043 10.6067 7.13383 10.216 7.14425C9.82525 7.15467 9.44657 7.28163 9.12854 7.50883C8.41656 7.98349 8.06744 8.65936 8.16719 9.47797Z" fill="black"/>
<path d="M61.0273 30.4229C59.4485 31.527 58.6643 32.7652 58.8173 34.6415C58.9893 36.6622 58.8552 38.7088 58.8552 40.745C58.8632 40.9451 58.8592 41.1455 58.8431 41.3452C58.7744 41.9419 58.4356 42.3254 57.8336 42.2928C57.2919 42.2618 56.948 41.911 56.9497 41.3228C56.9497 38.4852 56.8671 35.6476 57.0253 32.8134C57.0718 31.9673 57.739 31.1142 58.2481 30.3472C58.5921 29.8158 59.1647 29.4272 59.7271 28.8854L53.842 25.9205C53.204 26.6084 52.4989 27.3187 51.8678 28.0892C51.6803 28.3179 51.6356 28.7152 51.6339 29.035C51.6184 32.8478 51.6235 36.6605 51.6235 40.4732C51.6235 40.702 51.6235 40.9324 51.6235 41.1611C51.6012 41.8198 51.3088 42.3151 50.6106 42.291C49.9622 42.2687 49.7008 41.7975 49.7026 41.1611C49.7026 38.781 49.7026 36.4025 49.7026 34.0224C49.7026 32.3886 49.7421 30.7548 49.6768 29.121C49.6596 28.6653 49.4033 28.1734 49.1333 27.7848C48.8272 27.3445 48.3663 27.0143 48.0017 26.6119C47.6371 26.2095 47.2932 25.8741 46.6345 26.2421C46.4264 26.3591 45.7643 26.0702 45.6215 25.7916C45.4788 25.513 45.5906 24.8612 45.8245 24.6892C46.5674 24.1406 46.6723 23.432 46.5898 22.6358C46.5685 22.3593 46.4622 22.0962 46.2854 21.8825C45.6907 21.2779 45.2281 20.5563 44.927 19.7635C44.626 18.9707 44.4929 18.1239 44.5364 17.277C44.5518 16.8264 44.5364 16.4412 43.9792 16.2829C43.8676 16.2259 43.7711 16.1432 43.6979 16.0415C43.6246 15.9398 43.5766 15.8221 43.5578 15.6982C43.4048 13.478 43.3497 11.2767 44.9749 9.44685C45.5043 8.82338 46.1549 8.31405 46.8872 7.94982C47.6195 7.58559 48.4182 7.37406 49.2348 7.3281C51.3363 7.19052 53.431 7.12516 55.254 8.45799C56.9153 9.67386 57.7133 11.3506 57.8216 13.3834C57.8667 14.0133 57.8627 14.6458 57.8096 15.2752C57.7752 15.6191 57.6187 16.135 57.3865 16.2176C56.7106 16.4652 56.8001 16.9502 56.7966 17.4541C56.8121 19.0481 56.215 20.5872 55.1284 21.7535C54.3373 22.6134 54.5867 24.1165 55.6186 24.6445C57.2237 25.4631 58.8357 26.2696 60.4546 27.0642C62.1743 27.9086 63.0136 29.2586 62.9998 31.1916C62.9775 34.4592 63.0119 37.7268 62.9706 40.9943C62.9706 41.3916 62.7625 41.9247 62.465 42.1535C61.8149 42.6522 61.0892 42.0812 61.0892 41.0958C61.0806 37.9142 61.0892 34.7326 61.0892 31.5493C61.0754 31.2071 61.0479 30.8735 61.0273 30.4229ZM54.8361 16.6149C52.8085 15.9648 50.8806 15.3491 48.9631 14.7369C48.8616 14.7042 48.7171 14.6646 48.6432 14.7094C47.9346 15.1341 47.0868 15.454 46.5932 16.0611C46.2802 16.4463 46.4522 17.2649 46.4866 17.8909C46.6293 20.4448 49.2124 22.2867 51.682 21.6194C53.9005 21.0192 55.07 19.1188 54.8326 16.6149H54.8361ZM55.8284 14.4772C56.1723 11.5192 54.5661 9.47437 51.7508 9.24564C50.8953 9.18458 50.036 9.20012 49.1832 9.29207C46.693 9.538 45.1073 11.6946 45.5424 14.3912C46.2579 13.9097 46.9578 13.5313 47.546 13.0154C48.1737 12.4702 48.712 12.3722 49.467 12.7832C51.4275 13.8615 53.5566 14.3516 55.8249 14.4772H55.8284ZM48.485 23.561C48.3302 25.1329 50.0138 25.4528 50.6863 26.5311C51.2435 25.3771 53.0424 25.1243 52.7964 23.561H48.485Z" fill="black"/>
</svg>
