<svg xmlns="http://www.w3.org/2000/svg" viewBox="0 0 71.2 48.68"><g id="Layer_2" data-name="Layer 2"><g id="Layer_1-2" data-name="Layer 1"><path d="M48,27.36c-1.91-.8-3.77-1.64-5.65-2.49a2.45,2.45,0,0,1-1.2-1.9,2,2,0,0,1,.44-1.76,10.05,10.05,0,0,0,3.23-8.46,2.43,2.43,0,0,1,.64-1.83A2.54,2.54,0,0,0,46,9.32,9.19,9.19,0,0,0,42.35,2a10,10,0,0,0-6.5-2c-.76,0-1.61.05-2.67.15a8.79,8.79,0,0,0-6,3.25c-1.83,2.16-2.5,4.89-2.09,8.59a1.92,1.92,0,0,0,.32.73c.08.14.17.29.24.44s.11.22.17.33a2.22,2.22,0,0,1,.36.94,9.6,9.6,0,0,0,2.95,6.51,2.48,2.48,0,0,1,.7,2.21A2.42,2.42,0,0,1,28.45,25L26,26c-1.14.5-2.32,1-3.47,1.55A5.63,5.63,0,0,0,19,32.88c0,3.59,0,7.24,0,10.77,0,1.26,0,2.53,0,3.79,0,.79.31,1.2.93,1.2H20c.21,0,.88,0,.85-1.22,0-.18,0-.35,0-.53V33.75c0-.22,0-.43,0-.73s0-.34,0-.57l0-.45.32.32.92,1c.63.65,1.17,1.21,1.74,1.75A3.34,3.34,0,0,1,25,37.65c0,2.69,0,5.42,0,8.07v1.47a1.19,1.19,0,0,0,1,1.41h0c.27,0,.66-.5.83-.72a.9.9,0,0,0,.05-.49V43.7c0-2,0-4,0-6.05a5.14,5.14,0,0,0-1.73-4c-.74-.68-1.46-1.38-2.21-2.11l-1-1-.17-.16.19-.14.34-.27a2.18,2.18,0,0,1,.51-.36l.16-.07c2.05-.94,4.17-1.92,6.29-2.82a.4.4,0,0,1,.2,0,1.56,1.56,0,0,1,.91.41c1.17,1.13,2.42,2.34,3.59,3.61a2.57,2.57,0,0,1,.66,1.59c0,3.68,0,7.42,0,11v3.63c0,1.49.45,1.71.9,1.73h.06c.23,0,.91,0,.91-1.74,0-1.22,0-2.44,0-3.66,0-3.61,0-7.33,0-11a2.61,2.61,0,0,1,.66-1.59c.66-.72,1.36-1.41,2-2.08.51-.51,1-1,1.53-1.55a1.14,1.14,0,0,1,.84-.42,1.51,1.51,0,0,1,.6.15c1,.46,2,.91,3,1.35l2.63,1.18a6,6,0,0,1,.89.54c.15.11.32.22.5.33l.21.14-.18.18-1.07,1c-.76.74-1.47,1.44-2.21,2.12a5.11,5.11,0,0,0-1.72,4.11c0,.83,0,1.68,0,2.5v7.18c0,1.18.67,1.19.89,1.2h0c.39,0,.91-.13.94-1.23v-3c0-2.21,0-4.5,0-6.75a2.82,2.82,0,0,1,.39-1.74c.69-.85,1.47-1.64,2.29-2.49l1-1.07.31-.33,0,.46c0,.22,0,.39,0,.54s0,.46,0,.65V47.52c0,.72.28,1.1.85,1.12h.05c.58,0,.89-.38.93-1.12,0-.14,0-.28,0-.42v-.17c0-1.34,0-2.68,0-4,0-3.06,0-6.23,0-9.35A6.11,6.11,0,0,0,48,27.36ZM39.44,25.7c-.89.91-1.8,1.82-2.68,2.7L36.2,29l-.35.34-.37.34-1-1-3-3.05a.86.86,0,0,1-.21-.69c.1-.48.23-.95.35-1.41.05-.17.09-.34.14-.5l.05-.19.19,0a15,15,0,0,0,3.69.6A10.13,10.13,0,0,0,39,22.83l.2-.06,0,.2.15.53c.13.47.27,1,.37,1.45A1,1,0,0,1,39.44,25.7Zm-1.61-4.48a7.48,7.48,0,0,1-2.34.37,7.28,7.28,0,0,1-7-4.85l-.09-.25a5,5,0,0,1-.27-.93v-.08c-.18-1-.37-2.16,1.13-2.64a1.23,1.23,0,0,0,.71-.55,2,2,0,0,0,.13-1.36.56.56,0,0,0-.54-.35,1.26,1.26,0,0,0-.64.22c-.36.24-.73.48-1.12.72l-.81.53-.05-.3c-.79-4.88,1.41-8.64,5.6-9.56A15.61,15.61,0,0,1,36,1.76a8,8,0,0,1,6.57,3.06A6.71,6.71,0,0,1,44.11,9c0,.32-.31.9-.64.95a21.31,21.31,0,0,1-3.37.3,11.39,11.39,0,0,1-5.86-1.47,13,13,0,0,1-1.42-1l-.13-.11a1.38,1.38,0,0,0-.83-.38.84.84,0,0,0-.64.36c-.23.28-.47.74.24,1.39a11.53,11.53,0,0,0,7.38,3c.42,0,.86,0,1.4,0h2.51l0,.16A7.6,7.6,0,0,1,37.83,21.22Z"/><path d="M17.37,32.15a2.67,2.67,0,0,1-1.23-2.1,2.85,2.85,0,0,1,.78-2.48,7.8,7.8,0,0,0,2.85-5.85c0-1,0-2.12,0-3.18a7.13,7.13,0,0,0-2.41-5.32,3.24,3.24,0,0,1-1.22-2.82A4.29,4.29,0,0,0,12,6.07a3,3,0,0,0-.42,0,4.47,4.47,0,0,0-4.2,3.24,5.49,5.49,0,0,0-.09,1.23,3.73,3.73,0,0,1-.23,1.67A4.54,4.54,0,0,1,6,13.46a4.62,4.62,0,0,0-.94,1,9,9,0,0,0-1.23,3,16.5,16.5,0,0,0-.21,3.23v.5a8.23,8.23,0,0,0,2.95,6.42,2.37,2.37,0,0,1,.61,1.26,3.17,3.17,0,0,1,0,.87,5,5,0,0,0,0,.55,1.76,1.76,0,0,1-1.12,1.84c-1.19.56-2.38,1.16-3.55,1.78A4.49,4.49,0,0,0,0,38.13V47c0,1.48.49,1.66.91,1.66h0c.46,0,.88-.2.88-1.6V38.29l.31.21c2.1,1.36,2.67,2.34,2.67,4.59v4.39c0,.53.16,1.16.93,1.16a.84.84,0,0,0,.62-.22,1.29,1.29,0,0,0,.27-.93v-.65c0-1.42,0-2.9,0-4.35a4.88,4.88,0,0,0-1.68-4c-.51-.46-1-.92-1.61-1.4l-.86-.74-.22-.19L8,33.23l.1.11L8.7,34c.44.49.9,1,1.39,1.45a2.11,2.11,0,0,1,.7,1.72c0,2.17,0,4.39,0,6.52v2c0,.22,0,.43,0,.64a4.57,4.57,0,0,0,.08,1.49,1.5,1.5,0,0,0,.94.87h.12c.39,0,.68-.36.69-.88,0-.27,0-.56,0-.89,0-.82,0-1.64,0-2.46,0-2.4,0-4.88,0-7.32a2.72,2.72,0,0,1,.6-1.5c.45-.55.95-1,1.48-1.57l.66-.66.1-.11.47.26.55.29a3.1,3.1,0,0,0,1.34.44h0a.68.68,0,0,0,.66-.42C18.75,33.29,18.66,32.84,17.37,32.15ZM10.28,8.34A2.44,2.44,0,0,1,13,8.27a2.47,2.47,0,0,1,1.31,2.54l0,.18H9.09l0-.18A2.48,2.48,0,0,1,10.28,8.34ZM7.35,14.51a6.1,6.1,0,0,1,4.34-1.8h0a6.18,6.18,0,0,1,4.42,1.86,6.53,6.53,0,0,1,1.78,4.74v.12l-.11.05a5.37,5.37,0,0,1-2.18.46A6.26,6.26,0,0,1,13,19.33a10.64,10.64,0,0,1-2.57-1.76c-.49-.44-.82-.67-1.12-.67s-.54.15-1.06.57-1,.73-1.57,1.09l-.8.52-.31.21v-.37A6.16,6.16,0,0,1,7.35,14.51ZM12.79,33.4c-.32.29-.65.58-.93.89l-.15.17-.15-.17a10.14,10.14,0,0,0-.94-.91c-1.09-1-2.23-2-1.5-3.92l.05-.13h5l.05.12C15.07,31.35,13.91,32.39,12.79,33.4Zm-.41-5.84-.61,0c-3.59,0-6.07-2.47-6.31-6.28v-.13L9.3,19.23l.1.07c3.18,2.06,3.59,2.33,6.48,2.33l1.73,0h.19v.18a4.83,4.83,0,0,1-1.26,3.53A6.19,6.19,0,0,1,12.38,27.56Z"/><path d="M71.2,36a4.68,4.68,0,0,0-2.84-4.59c-2-1-3.89-1.93-5.61-2.81a2.24,2.24,0,0,1-1.18-1.64,2.38,2.38,0,0,1,.56-2A7.1,7.1,0,0,0,64,20v-.19c0-.53,0-1.13.81-1.43a1.43,1.43,0,0,0,.36-.93,14.11,14.11,0,0,0,0-2.16,7,7,0,0,0-2.89-5.56,8,8,0,0,0-4.88-1.35c-.62,0-1.24,0-2,.08a6.75,6.75,0,0,0-4.81,2.39c-1.78,2-1.77,4.4-1.59,7.1a.73.73,0,0,0,.35.5c.82.23.8.88.79,1.35a6.84,6.84,0,0,0,2,5.2,1.73,1.73,0,0,1,.41,1,2.55,2.55,0,0,1-1,2.56,1.17,1.17,0,0,0-.18,1,1.31,1.31,0,0,0,.85.45h0a1.42,1.42,0,0,1,.71-.22,1.57,1.57,0,0,1,1.12.68c.16.18.34.35.51.51a5.63,5.63,0,0,1,.82.87,3.48,3.48,0,0,1,.67,1.66c.05,1.37,0,2.77,0,4.11v9.86c0,.72.28,1.09.86,1.11h0c.59,0,.9-.38.93-1.12v-3.6c0-3.42,0-7,0-10.45a2,2,0,0,1,.32-1.23c.53-.65,1.11-1.26,1.67-1.86l.62-.66.11-.11L68,33.24l-.2.2-.62.57a5.43,5.43,0,0,0-1.06,1.09l-.26.39a5.11,5.11,0,0,0-1.13,2.37c-.13,2.39-.12,4.83-.1,7.2,0,.88,0,1.77,0,2.66a.84.84,0,0,0,.84.92h.07c.65,0,.84-.5.89-.92a3.93,3.93,0,0,0,0-.49,1.09,1.09,0,0,1,0-.18c0-.72,0-1.45,0-2.15,0-1.62.06-3.29-.07-4.92-.17-2.1.65-3.67,2.65-5.07l.3-.2v.36c0,.17,0,.34,0,.49s0,.55,0,.81V47.44c0,.7.37,1.24.83,1.24a.77.77,0,0,0,.45-.17,1.75,1.75,0,0,0,.51-1.19c0-2.15,0-4.33,0-6.44C71.19,39.26,71.19,37.59,71.2,36ZM51,16.83,51,16.52a5.51,5.51,0,0,1,1-4.29,4.81,4.81,0,0,1,3.43-1.85,18,18,0,0,1,1.88-.1c.39,0,.77,0,1.14,0a5.3,5.3,0,0,1,3.81,1.84,5.77,5.77,0,0,1,1.1,4.45l0,.19h-.19a17.29,17.29,0,0,1-7.46-2,1.88,1.88,0,0,0-.89-.27,1.71,1.71,0,0,0-1.11.51A12.34,12.34,0,0,1,52,16.16l-.76.49Zm7.43,12.64a3.47,3.47,0,0,0-1.14,1.18l-.16.32L57,30.66a4.44,4.44,0,0,0-1.12-1.08c-.78-.6-1.58-1.22-1.46-2.48l0-.18h5.35l0,.16C60,28.3,59.19,28.9,58.45,29.47Zm-.12-4.41a4.77,4.77,0,0,1-1.25.17,5.05,5.05,0,0,1-5-4.67c0-.15,0-.31,0-.48a2.51,2.51,0,0,1,.21-1.78A5.44,5.44,0,0,1,54,17.07l.7-.38a.32.32,0,0,1,.2-.06,1.21,1.21,0,0,1,.33.07l5.64,1.8,1.3.42v.13C62.42,22.09,61,24.34,58.33,25.06Z"/></g></g></svg>