<svg xmlns="http://www.w3.org/2000/svg" viewBox="0 0 52.38 55.66"><g id="Layer_2" data-name="Layer 2"><g id="Layer_1-2" data-name="Layer 1"><path d="M52.37,27.81c0,4.8,0,9.6,0,14.4a1.4,1.4,0,0,1-.92,1.45Q39.27,49.51,27.09,55.43a1.83,1.83,0,0,1-1.77,0Q13.14,49.52.94,43.66A1.45,1.45,0,0,1,0,42.15Q0,27.83,0,13.51A1.49,1.49,0,0,1,1,12Q13.13,6.14,25.24.25a2,2,0,0,1,1.89,0Q39.28,6.14,51.44,12a1.44,1.44,0,0,1,.94,1.51C52.35,18.26,52.37,23,52.37,27.81ZM2.76,12.94c.28.15.47.26.66.35l14.38,7c.87.42,1.74.83,2.61,1.27a.81.81,0,0,1-.7,1.46c-.25-.09-.48-.23-.72-.34l-16.6-8c-.23-.11-.47-.19-.74-.29,0,.2,0,.32,0,.44q0,13.43,0,26.84c0,.54.27.69.65.88L23.72,52.83l1.64.76V37.94c0-3.85,0-7.71,0-11.56a.86.86,0,0,0-.62-1c-.47-.18-5-2.4-5.5-2.62s-.79-.62-.51-1.17.75-.52,1.24-.3,5,2.35,5.43,2.61a1.43,1.43,0,0,0,1.61,0c1.59-.82,3.22-1.57,4.83-2.35a.79.79,0,0,1,1.17.33c.26.51,0,.88-.45,1.13l-.32.16c-1.5.73-3,1.48-4.52,2.17A1.06,1.06,0,0,0,27,26.49q0,13.13,0,26.25v.85l.69-.3Q39,47.86,50.2,42.44a.87.87,0,0,0,.56-.94q0-13.24,0-26.47c0-.23,0-.45,0-.75-2.34,1.12-4.57,2.22-6.83,3.27a1,1,0,0,0-.7,1.09c0,2.83,0,5.67,0,8.51a1.57,1.57,0,0,1-1.07,1.66c-1.72.78-3.41,1.63-5.11,2.44-1.15.56-1.6.28-1.6-1,0-2.91,0-5.82,0-8.72a.78.78,0,0,0-.51-.84Q23.11,15,11.27,9.25a1.28,1.28,0,0,0-.92,0c-2,1-4.06,2-6.09,2.93Zm16.7-8c.23.12.37.21.52.28Q31.21,10.6,42.46,16a1.2,1.2,0,0,0,.93,0c1.91-.88,3.8-1.81,5.69-2.73a4.68,4.68,0,0,0,.52-.31l-.86-.42L29,3c-.93-.45-1.88-1.22-2.82-1.22S24.3,2.54,23.37,3C22.09,3.6,20.81,4.23,19.46,4.89ZM12.81,8.13c.25.14.39.22.54.29L33.41,18.1c.93.45,1.88,1.21,2.82,1.2s1.88-.77,2.82-1.22l1.86-.91a1.35,1.35,0,0,0-.2-.16q-11.4-5.52-22.8-11a.91.91,0,0,0-.67,0C15.8,6.67,14.37,7.38,12.81,8.13ZM37.08,29.42C38.57,28.7,40,28,41.33,27.34c.16-.08.23-.45.23-.68,0-2,0-4,0-6V18.7c-1.51.72-2.9,1.37-4.27,2.07-.14.07-.21.41-.21.62,0,1.33,0,2.67,0,4Z"/><path d="M12.26,37.31a.84.84,0,0,1-1.3.85L5.74,35.65c-.54-.26-1.09-.52-1.62-.79s-.76-.57-.52-1.1a.79.79,0,0,1,1.21-.38c2.3,1.11,4.61,2.21,6.9,3.35C12,36.86,12.14,37.18,12.26,37.31Z"/><path d="M4.22,37.05c.33.12.51.18.69.26l3.26,1.58c.5.24.9.57.6,1.18s-.77.55-1.3.29c-1.13-.55-2.28-1-3.38-1.66a1.25,1.25,0,0,1-.5-1C3.59,37.49,4,37.26,4.22,37.05Z"/></g></g></svg>