<svg width="58" height="58" viewBox="0 0 58 58" fill="none" xmlns="http://www.w3.org/2000/svg">
<path d="M12.3554 39.6091V30.6825C11.4151 30.6825 10.4778 30.6748 9.5405 30.6825C9.03722 30.6825 8.44776 30.6949 8.33541 30.1269C8.26153 29.756 8.45392 29.2374 8.69863 28.9157C9.82984 27.4243 11.0472 25.9915 12.18 24.5078C12.6325 23.9122 13.1373 23.706 13.873 23.7106C18.5917 23.7383 23.3121 23.7306 28.0324 23.7229C33.3652 23.7229 38.6981 23.706 44.0294 23.6675C44.7897 23.6675 45.3268 23.8799 45.7978 24.4986C46.9429 26.0099 48.1741 27.4551 49.3284 28.9649C49.5562 29.2728 49.7609 29.8484 49.6193 30.0977C49.4454 30.4055 48.9067 30.6194 48.5065 30.6533C47.5708 30.7318 46.6227 30.6779 45.6331 30.6779V39.5968C46.8136 39.5968 47.9848 39.5768 49.1545 39.5968C52.2465 39.6614 54.7182 40.9635 56.4189 43.5291C58.3473 46.441 58.5243 49.5561 56.8806 52.6404C55.2584 55.697 52.6158 57.3037 49.1453 57.3499C44.9128 57.4069 40.6804 57.3638 36.4464 57.3638C27.3146 57.3638 18.1829 57.3638 9.05107 57.3638C4.44311 57.3638 0.86325 54.2856 0.109108 49.75C-0.720448 44.7527 3.29189 39.8061 8.35388 39.6137C9.65747 39.566 10.9626 39.6091 12.3554 39.6091ZM28.9204 55.6385H48.6959C49.1066 55.654 49.518 55.6417 49.9271 55.6015C53.6008 55.106 56.4189 51.7785 56.1896 48.2233C55.9356 44.2679 52.9052 41.3421 49.0191 41.3267C46.2749 41.3159 43.5307 41.3421 40.7866 41.3421C30.2717 41.3421 19.7548 41.339 9.23576 41.3329C8.51958 41.3239 7.80523 41.4072 7.11031 41.5807C3.5089 42.5472 1.39269 45.8393 1.88673 49.6254C2.32998 53.019 5.40811 55.6277 8.98951 55.6385C15.6352 55.6436 22.2788 55.6436 28.9204 55.6385ZM28.0293 27.2027C27.1936 28.2447 26.4425 29.1389 25.7407 30.0685C25.3959 30.5302 24.9958 30.6933 24.4325 30.6841C21.302 30.6656 18.1731 30.6748 15.0442 30.6748H14.1946V39.5214H28.0293V27.2027ZM43.7708 39.5152V30.6795H42.8782C40.0047 30.6795 37.1298 30.6241 34.2594 30.7087C33.1313 30.741 32.3771 30.4117 31.7631 29.4775C31.2582 28.7079 30.6149 28.0369 29.93 27.1981V39.5106L43.7708 39.5152ZM30.8427 25.4497C31.6876 26.5071 32.4464 27.4028 33.1405 28.3462C33.4683 28.7926 33.8331 28.9311 34.3718 28.928C38.3487 28.908 42.3241 28.9188 46.3011 28.9157C46.5181 28.9157 46.7335 28.8849 47.0429 28.8634C46.1625 27.766 45.3592 26.7441 44.5265 25.7437C44.3804 25.5796 44.1762 25.4786 43.9571 25.462C39.6385 25.4497 35.3306 25.4543 30.8365 25.4543L30.8427 25.4497ZM10.958 28.8526C11.0657 28.8815 11.1752 28.9031 11.2858 28.9172C15.4926 28.9172 19.6994 28.9172 23.9061 28.9172C24.0985 28.9172 24.3679 28.888 24.471 28.7633C25.3467 27.7137 26.1916 26.6394 27.1366 25.4574C22.6318 25.4574 18.3024 25.4574 13.9715 25.4713C13.7541 25.5067 13.5583 25.6233 13.4236 25.7975C12.6079 26.7795 11.8168 27.7814 10.958 28.8526Z" fill="black"/>
<path d="M22.5454 17.4129C22.6193 16.117 21.7928 15.095 20.637 14.9919C19.8459 14.9211 19.3657 14.6195 19.2288 13.7745C19.0843 12.9154 18.8822 12.067 18.6239 11.2351C18.4269 10.5779 18.6393 10.1731 19.1718 9.80681C20.4862 8.90491 20.7386 7.90298 19.9844 6.51629C19.6612 5.92221 19.652 5.43894 20.1153 4.91258C20.7309 4.22 21.2896 3.48895 21.8498 2.75789C22.2253 2.26693 22.667 2.04222 23.2426 2.35004C24.1384 2.82869 24.9448 2.53626 25.6605 2.0176C25.9683 1.78828 26.193 1.34811 26.3238 0.958723C26.5532 0.273839 26.9395 -0.0339743 27.6798 0.00296325C28.6032 0.0491352 29.5266 0.0352836 30.4501 0.00296325C31.0826 -0.0170446 31.5136 0.226128 31.6321 0.84791C31.826 1.85754 32.5878 2.25923 33.4282 2.52087C33.7483 2.61937 34.1839 2.53319 34.5055 2.39621C35.2843 2.06993 35.8106 2.2854 36.2816 2.94719C36.7695 3.6367 37.3112 4.2908 37.8638 4.92951C38.2932 5.42663 38.4101 5.95145 37.9838 6.45164C37.3128 7.23657 37.4636 8.07536 37.793 8.88799C37.9284 9.2235 38.307 9.50361 38.6395 9.70831C39.2982 10.11 39.5629 10.584 39.3166 11.369C39.0727 12.1759 38.8845 12.9987 38.7533 13.8315C38.6256 14.601 38.1685 14.8903 37.4498 14.9765C36.1231 15.1304 35.3258 16.0662 35.449 17.4021C35.5321 18.2871 35.2227 18.7949 34.4116 19.1151C33.6733 19.4116 32.9538 19.7529 32.2569 20.137C31.6413 20.4694 31.1288 20.414 30.6809 19.8877C30.1623 19.2721 29.5251 18.9642 28.7294 19.1382C28.3323 19.229 27.8952 19.3598 27.5951 19.6122C26.5763 20.4694 26.5963 20.4925 25.3819 19.9031C24.7848 19.6122 24.2015 19.2874 23.5828 19.0427C22.7563 18.7272 22.3254 18.2147 22.5454 17.4129ZM29.0403 17.2497C29.6836 17.4206 30.4532 17.4283 30.9395 17.8038C31.5351 18.2655 31.9676 18.4533 32.5925 17.9916C32.763 17.8765 32.9505 17.7887 33.1481 17.7315C33.5882 17.5775 33.7344 17.3067 33.6344 16.8496C33.499 16.2339 33.6883 15.703 34.1285 15.2366C34.4794 14.8657 34.7287 14.3901 35.1058 14.0531C35.4474 13.7453 35.8753 13.4236 36.3078 13.362C36.8941 13.2774 37.182 13.0758 37.2312 12.4956C37.2649 12.242 37.3258 11.9927 37.4128 11.7522C37.5667 11.2751 37.4374 10.9827 37.008 10.6748C36.6118 10.3477 36.3069 9.92348 36.1231 9.44359C35.9166 8.89112 35.7887 8.31245 35.7429 7.72445C35.706 7.37047 35.7291 6.91798 35.9215 6.64711C36.3739 6.01917 36.2708 5.54514 35.7491 5.06341C35.6173 4.94108 35.5043 4.80002 35.4136 4.64478C35.1581 4.19999 34.8349 4.04763 34.3362 4.29234C33.736 4.59092 33.1635 4.50781 32.594 4.1492C32.1846 3.8891 31.6967 3.74905 31.3073 3.46586C30.9564 3.21037 30.5547 2.88409 30.4193 2.5024C30.1946 1.87601 29.8575 1.65592 29.2342 1.74211C29.0051 1.77519 28.7723 1.77519 28.5432 1.74211C28.0122 1.65592 27.7229 1.88216 27.6044 2.38544C27.4643 2.99029 27.0595 3.33658 26.5024 3.56436C26.0283 3.75828 25.5913 4.0507 25.1172 4.20615C24.7494 4.3262 24.26 4.45856 23.9552 4.31235C23.1641 3.93066 22.724 4.2277 22.3361 4.86949C22.2487 5.02351 22.1387 5.16358 22.0099 5.28503C21.6312 5.62209 21.6343 5.96684 21.9406 6.34391C22.3515 6.84872 22.3654 7.41048 22.1976 8.01072C22.0668 8.47244 22.0329 8.98341 21.8467 9.42358C21.6605 9.86375 21.4265 10.3224 21.0772 10.5717C20.5385 10.9473 20.3815 11.3197 20.6155 11.9122C20.7148 12.1488 20.7756 12.3998 20.7955 12.6556C20.8232 13.1543 21.0956 13.3066 21.5481 13.3113C22.1561 13.3113 22.607 13.6052 22.9595 14.1039C23.3119 14.6025 23.729 15.0088 24.0368 15.5013C24.2184 15.783 24.4046 16.1847 24.3446 16.4756C24.1538 17.3328 24.5816 17.6853 25.2788 17.9269C25.5189 18.0085 25.7405 18.1793 25.9745 18.244C26.1392 18.2871 26.4254 18.2886 26.5024 18.1886C27.1519 17.3313 28.0599 17.3298 29.0403 17.2497Z" fill="black"/>
<path d="M26.8503 48.5063C26.8445 49.3892 26.5775 50.2506 26.0829 50.9819C25.5882 51.7133 24.8881 52.2818 24.0709 52.6158C23.2536 52.9498 22.3557 53.0344 21.4904 52.8588C20.6252 52.6832 19.8312 52.2554 19.2088 51.6293C18.5863 51.0032 18.1631 50.2068 17.9926 49.3405C17.8221 48.4742 17.9119 47.5769 18.2507 46.7616C18.5894 45.9462 19.162 45.2495 19.8962 44.7591C20.6304 44.2687 21.4934 44.0067 22.3763 44.0061C22.9656 44.0075 23.5489 44.1251 24.0928 44.3521C24.6367 44.579 25.1305 44.911 25.546 45.3289C25.9615 45.7469 26.2906 46.2426 26.5144 46.7878C26.7382 47.333 26.8523 47.917 26.8503 48.5063ZM22.3639 51.1889C22.8992 51.1865 23.4218 51.0258 23.866 50.727C24.3101 50.4283 24.656 50.0048 24.86 49.51C25.0641 49.0151 25.1172 48.471 25.0128 47.946C24.9083 47.421 24.6509 46.9387 24.2729 46.5596C23.8949 46.1806 23.4133 45.9218 22.8886 45.8159C22.364 45.7099 21.8197 45.7615 21.3242 45.9642C20.8288 46.1669 20.4044 46.5115 20.1044 46.9548C19.8044 47.3981 19.6422 47.9203 19.6383 48.4555C19.636 48.8145 19.7049 49.1703 19.841 49.5024C19.9771 49.8346 20.1777 50.1364 20.4311 50.3906C20.6846 50.6448 20.9859 50.8462 21.3176 50.9832C21.6494 51.1202 22.005 51.1901 22.3639 51.1889Z" fill="black"/>
<path d="M31.1212 48.4898C31.1199 47.9026 31.2343 47.321 31.4577 46.7781C31.6812 46.2351 32.0094 45.7415 32.4237 45.3254C32.8379 44.9093 33.3301 44.5789 33.872 44.353C34.4139 44.1271 34.9951 44.0101 35.5822 44.0088C36.1693 44.0075 36.751 44.1218 37.2939 44.3453C37.8369 44.5688 38.3305 44.897 38.7466 45.3112C39.1627 45.7255 39.4931 46.2176 39.719 46.7596C39.9449 47.3015 40.0619 47.8826 40.0632 48.4698C40.0645 49.0569 39.9502 49.6386 39.7267 50.1815C39.5032 50.7245 39.175 51.2181 38.7607 51.6342C38.3465 52.0503 37.8544 52.3807 37.3124 52.6066C36.7705 52.8325 36.1894 52.9495 35.6022 52.9508C35.0151 52.9521 34.4334 52.8377 33.8905 52.6143C33.3475 52.3908 32.8539 52.0626 32.4378 51.6483C32.0217 51.2341 31.6913 50.7419 31.4654 50.2C31.2395 49.6581 31.1225 49.0769 31.1212 48.4898ZM35.5937 51.1893C36.1294 51.1826 36.6512 51.0175 37.0931 50.7148C37.5351 50.412 37.8776 49.9852 38.0774 49.4882C38.2773 48.9911 38.3255 48.446 38.216 47.9216C38.1065 47.3972 37.8442 46.9169 37.4622 46.5413C37.0802 46.1657 36.5955 45.9116 36.0693 45.811C35.5431 45.7104 34.9989 45.7679 34.5053 45.9761C34.0117 46.1843 33.5908 46.534 33.2956 46.981C33.0004 47.4281 32.8441 47.9525 32.8465 48.4882C32.8558 49.2097 33.1497 49.8983 33.6642 50.4042C34.1788 50.91 34.8722 51.1922 35.5937 51.1893Z" fill="black"/>
<path d="M44.3019 48.4003C44.3229 47.2215 44.8084 46.0986 45.6528 45.2758C46.4973 44.453 47.6323 43.9967 48.8113 44.0062C51.3031 44.0447 53.3239 46.1178 53.2469 48.5573C53.1669 51.0582 51.0922 53.0421 48.6528 52.9575C46.2134 52.8728 44.2341 50.8259 44.3019 48.4003ZM48.7528 51.1891C49.462 51.1775 50.1385 50.8888 50.6375 50.3848C51.1366 49.8808 51.4186 49.2015 51.4232 48.4922C51.4278 47.783 51.1547 47.1001 50.6623 46.5896C50.1699 46.0791 49.4972 45.7816 48.7882 45.7608C48.4266 45.7501 48.0665 45.8119 47.7291 45.9424C47.3917 46.0728 47.0838 46.2694 46.8234 46.5206C46.5631 46.7718 46.3556 47.0724 46.213 47.4049C46.0705 47.7374 45.9959 48.0951 45.9935 48.4568C45.9912 48.8186 46.0611 49.1771 46.1993 49.5115C46.3375 49.8458 46.5411 50.1492 46.7981 50.4037C47.0552 50.6582 47.3605 50.8588 47.6962 50.9937C48.0319 51.1286 48.3911 51.195 48.7528 51.1891Z" fill="black"/>
<path d="M13.6699 48.4602C13.6742 49.3474 13.4146 50.2159 12.9243 50.9553C12.4339 51.6947 11.7349 52.2717 10.9159 52.6129C10.097 52.9542 9.19507 53.0444 8.32476 52.872C7.45446 52.6996 6.65502 52.2725 6.02798 51.6448C5.40095 51.0171 4.97462 50.2172 4.80314 49.3467C4.63166 48.4763 4.72277 47.5744 5.0649 46.7558C5.40702 45.9372 5.98473 45.2388 6.72463 44.7492C7.46454 44.2596 8.33326 44.001 9.22047 44.0062C10.3977 44.0178 11.5234 44.491 12.3554 45.3239C13.1875 46.1568 13.6595 47.283 13.6699 48.4602ZM9.19122 51.189C9.91085 51.197 10.6042 50.9187 11.1187 50.4155C11.6331 49.9123 11.9266 49.2253 11.9346 48.5056C11.9426 47.786 11.6643 47.0927 11.1611 46.5782C10.6579 46.0637 9.97088 45.7702 9.25125 45.7623C8.53162 45.7543 7.8383 46.0325 7.32381 46.5358C6.80933 47.039 6.51582 47.726 6.50786 48.4456C6.4999 49.1652 6.77814 49.8586 7.28137 50.373C7.7846 50.8875 8.47159 51.181 9.19122 51.189Z" fill="black"/>
<path d="M33.1636 10.2145C33.1527 11.0391 32.898 11.842 32.4317 12.5221C31.9653 13.2022 31.3081 13.7292 30.5429 14.0365C29.7777 14.3439 28.9386 14.418 28.1314 14.2494C27.3241 14.0808 26.5848 13.6772 26.0065 13.0893C25.4282 12.5014 25.0368 11.7555 24.8816 10.9456C24.7264 10.1357 24.8143 9.29794 25.1342 8.53788C25.4541 7.77782 25.9918 7.12942 26.6796 6.67435C27.3673 6.21927 28.1743 5.97786 28.9989 5.98052C29.5525 5.97772 30.101 6.08584 30.6121 6.2985C31.1232 6.51115 31.5865 6.82404 31.9747 7.21869C32.3629 7.61334 32.6681 8.08175 32.8723 8.59629C33.0765 9.11082 33.1756 9.66105 33.1636 10.2145ZM29.0266 7.74275C28.3792 7.73076 27.7534 7.97536 27.2857 8.42317C26.818 8.87097 26.5464 9.48561 26.5303 10.1329C26.5021 10.4695 26.5434 10.8082 26.6516 11.1281C26.7599 11.448 26.9328 11.7423 27.1597 11.9925C27.3865 12.2427 27.6624 12.4436 27.9701 12.5827C28.2779 12.7218 28.611 12.7961 28.9487 12.8009C29.2864 12.8058 29.6215 12.7411 29.9331 12.611C30.2448 12.4808 30.5263 12.288 30.7603 12.0444C30.9942 11.8008 31.1755 11.5117 31.293 11.195C31.4104 10.8784 31.4615 10.5409 31.443 10.2037C31.4472 9.88311 31.388 9.56482 31.2686 9.26723C31.1492 8.96964 30.9721 8.69863 30.7475 8.46984C30.5229 8.24105 30.2551 8.05901 29.9598 7.93421C29.6644 7.80942 29.3473 7.74435 29.0266 7.74275Z" fill="black"/>
</svg>
