<svg xmlns="http://www.w3.org/2000/svg" viewBox="0 0 53.61 53.6"><g id="Layer_2" data-name="Layer 2"><g id="Layer_1-2" data-name="Layer 1"><path d="M52.7,3.81,50.58,1.68,50,1.06A2.88,2.88,0,0,0,48.08,0a2.93,2.93,0,0,0-1.91,1.09L43.42,3.84,36.7,10.56c-.32.32-.68.65-1.09,1a2,2,0,0,1-1.34.55,2.5,2.5,0,0,1-.54-.07c-.63-.15-1.27-.29-1.89-.42s-1.35-.28-2-.45a4.4,4.4,0,0,0-1-.12,3.3,3.3,0,0,0-2.35.95c-1.88,1.77-3.73,3.64-5.52,5.45l0,0a.27.27,0,0,0-.08.07L.77,37.65a2,2,0,0,0,0,3.13c4.49,4.5,8.44,8.44,12.07,12.06a2.67,2.67,0,0,0,.87.61,2,2,0,0,0,.73.15,2.4,2.4,0,0,0,1.68-.87L28,40.86,38.42,30.39h0l1.16-1.16.4.3v.13c0,.07,0,.14,0,.2s0,.32,0,.48c0,.46,0,.92,0,1.36a23.52,23.52,0,0,0,.06,2.91,3.45,3.45,0,0,1-1.79,3.77,1.71,1.71,0,0,0-.64.54l-.2.3a2.68,2.68,0,0,0-.56,1.21c-.08,2.71-.06,5.48,0,8.09a1.55,1.55,0,0,0,1.58,1.55l2.38,0,2.33,0a1.54,1.54,0,0,0,1.58-1.61c0-1.63,0-3.3,0-4.91,0-1,0-2,0-3A1.86,1.86,0,0,0,44,39l-.41-.35c-.48-.41-1-.84-1.48-1.22a1.3,1.3,0,0,1-.57-1.16c0-1.32,0-2.67,0-4s0-2.94,0-4.42a2.32,2.32,0,0,1,.33-1.11,3.79,3.79,0,0,0,.5-3c-.09-.41-.17-.82-.25-1.22a15.16,15.16,0,0,0-.45-1.91,2.85,2.85,0,0,1,1-3.37A3.76,3.76,0,0,0,43,17l.14-.15,2.78-2.78L52.68,7.3C53.91,6.07,53.92,5,52.7,3.81ZM10.56,30C11.65,29,20.11,20.5,21.74,18.86l.2-.2,7.65,7.66L18,37.88l-7.66-7.65ZM42,39.53l.12-.08.13.06a1.82,1.82,0,0,1,1,1.94c-.05,1.58,0,3.14,0,4.78,0,.65,0,1.3,0,2v.28h-4.8V46.79c0-.51,0-1,0-1.52,0-1.21,0-2.46,0-3.68a2,2,0,0,1,1-2.08l.14-.06.13.08a5.92,5.92,0,0,1,.48.35,1.64,1.64,0,0,0,.68.38,1.63,1.63,0,0,0,.7-.38A4.73,4.73,0,0,1,42,39.53ZM41.75,16c-.14.16-.27.3-.39.45s-.47.53-.67.79A3.19,3.19,0,0,0,40,20c.1.46.2.92.29,1.37.17.81.34,1.65.55,2.47A2.61,2.61,0,0,1,40,26.59c-.88.87-1.77,1.77-2.63,2.63L36.3,30.33,34,32.59,18.72,47.92a.63.63,0,0,0-.11.12h0l-.73.73-.81-.84-1.71-1.77-.08-.08a4.47,4.47,0,0,0-.45-.43.9.9,0,0,0-.52-.2.82.82,0,0,0-.53.24.74.74,0,0,0-.24.5.84.84,0,0,0,.23.55c.5.53,1,1.06,1.54,1.56l.74.74.36.38.14.15.19.2-2.29,2.32L1.66,39.27l7.65-7.65.23.22.36.34,3.45,3.45,3.73,3.73c.42.42.68.6.9.6s.48-.18.92-.62L31.06,27.18c.78-.78.78-1,0-1.77-2.19-2.2-4.68-4.68-7.13-7.12a2.79,2.79,0,0,0-.38-.3l-.17-.13-.25-.19.22-.23,1.16-1.2c1-1.09,2-2.11,3.07-3.09A2.09,2.09,0,0,1,29,12.71l.38,0a31.43,31.43,0,0,1,3.67.78,4.75,4.75,0,0,0,1.2.17,3.73,3.73,0,0,0,2.68-1.17l.41-.38.31-.28.48-.44v.64c0,.29,0,.57,0,.83,0,.54,0,1.06,0,1.56,0,.79.27,1.05,1.05,1.06h3Zm5.13-5.08-2.81,2.82a.88.88,0,0,1-.57.23H39.67V12.81c0-1,0-1.85,0-2.76a1,1,0,0,1,.33-.6L42.66,6.8l1-1L47.76,10Zm2-2.21-4-4L48,1.59l4,4Z"/></g></g></svg>