<svg width="52" height="57" viewBox="0 0 52 57" fill="none" xmlns="http://www.w3.org/2000/svg">
<path d="M8.67932 3.82352C8.67932 2.6172 8.56386 1.43122 9.57588 0.685741C10.0737 0.344165 10.647 0.127917 11.2467 0.0554747C11.7101 -0.0516703 12.1959 -0.00272837 12.6284 0.19466C13.0609 0.392048 13.4158 0.726773 13.6376 1.14658C13.9555 1.99695 14.1832 2.87828 14.3168 3.77608H38.8566C38.8566 2.60365 38.6868 1.33634 39.8278 0.61797C40.4079 0.278346 41.0642 0.0895865 41.7364 0.0690288C42.2969 0.0699336 42.8414 0.255788 43.285 0.597639C43.715 0.992159 44.0296 1.49576 44.1952 2.05471C44.3164 2.64092 44.3734 3.23856 44.365 3.83707C45.5604 3.83707 46.7558 3.83707 47.9512 3.83707C48.8186 3.84377 49.6606 4.12969 50.3521 4.65231C51.0435 5.17493 51.5474 5.90631 51.7887 6.73765C51.9372 7.3061 52.0081 7.89197 51.9993 8.47935C51.9993 19.8919 51.9993 31.3045 51.9993 42.717V52.0626C51.9993 54.8886 50.2741 56.5829 47.4418 56.5829C33.4727 56.5829 19.5037 56.5829 5.53459 56.5829C2.70908 56.5829 0.983887 54.9157 0.983887 52.0626V8.33026C0.983887 5.53811 2.6887 3.83707 5.48025 3.82352H8.67932ZM50.3352 17.3031H10.3298C9.25665 17.3031 8.88988 17.0862 8.89667 16.4763C8.90346 15.8663 9.29061 15.6495 10.3434 15.6495H50.2605C50.2605 12.8506 50.3216 10.1262 50.2605 7.41535C50.2197 6.29714 49.0651 5.49067 47.8289 5.4839C46.0087 5.4839 44.1884 5.4839 42.3953 5.4839H40.5206C40.5206 6.24293 40.5206 6.92741 40.5206 7.60511C40.5206 8.28282 40.7176 8.67589 41.4376 8.77754C41.5565 8.78037 41.6733 8.81027 41.7789 8.86498C41.8845 8.91968 41.9762 8.99774 42.047 9.0932C42.1177 9.18865 42.1657 9.29898 42.1872 9.41575C42.2087 9.53253 42.2032 9.65266 42.1711 9.76699C42.0624 10.3363 41.6345 10.4447 41.1116 10.4447C40.5186 10.3847 39.9674 10.113 39.5593 9.67968C39.1512 9.24633 38.9137 8.68048 38.8905 8.08628C38.8905 7.25948 38.8905 6.42591 38.8905 5.56522H10.3638C10.3638 6.31747 10.3638 7.02229 10.3638 7.7271C10.3638 8.32348 10.5539 8.70977 11.2128 8.79787C11.8716 8.88597 12.1365 9.21127 12.0074 9.81443C11.8784 10.4176 11.403 10.4921 10.8596 10.4311C10.2435 10.3432 9.68151 10.032 9.28065 9.55707C8.87979 9.08211 8.66816 8.47655 8.68612 7.85586C8.68612 7.10361 8.68612 6.35136 8.68612 5.51778C7.57901 5.51778 6.5534 5.51778 5.52779 5.51778C3.61922 5.51778 2.66833 6.45979 2.65474 8.36414C2.65474 10.5735 2.65474 12.776 2.65474 14.9853C2.65474 15.2022 2.65474 15.4191 2.70229 15.663H10.3434C11.0973 15.663 11.5048 15.9612 11.4845 16.5034C11.4437 17.2421 10.9207 17.3166 10.3298 17.3166C8.21746 17.3166 6.09833 17.3166 3.98599 17.3166H2.62757V48.4911C2.62757 48.7079 2.62757 48.9316 2.62757 49.1688C2.62535 49.5056 2.69362 49.8391 2.82801 50.148C2.96239 50.4569 3.15994 50.7345 3.408 50.9628C3.65606 51.1912 3.94918 51.3654 4.26858 51.4743C4.58799 51.5831 4.92666 51.6242 5.2629 51.595H37.2876C37.5617 51.6212 37.8383 51.5866 38.0974 51.4937C38.3566 51.4008 38.592 51.2519 38.7867 51.0576C38.9814 50.8633 39.1307 50.6285 39.2238 50.3699C39.3169 50.1113 39.3515 49.8354 39.3252 49.5619C39.3252 47.8473 39.3252 46.1259 39.3252 44.4113C39.2971 43.9173 39.3733 43.423 39.5489 42.9603C39.7245 42.4976 39.9956 42.0769 40.3446 41.7255C40.6936 41.374 41.1127 41.0997 41.5748 40.9203C42.0369 40.7409 42.5316 40.6603 43.0269 40.6839C44.6502 40.6839 46.2735 40.6839 47.8969 40.6839C49.6832 40.6839 50.3352 40.0062 50.3352 38.2374V17.3031ZM2.71587 52.4828C2.70362 52.6293 2.70362 52.7767 2.71587 52.9233C2.92642 54.1906 3.9792 54.9564 5.54817 54.9564H47.3806C49.3571 54.9564 50.3284 54.0008 50.3352 52.0287C50.3352 49.4534 50.3352 46.8781 50.3352 44.3029C50.3352 44.0928 50.3352 43.8895 50.2809 43.5777C50.0228 43.8285 49.8394 43.9911 49.6696 44.1605C47.1701 46.6206 44.6978 49.0536 42.273 51.5611C41.7397 52.1342 41.0884 52.5853 40.3638 52.8836C39.6393 53.1819 38.8587 53.3203 38.0755 53.2892C27.3847 53.2892 16.6872 53.2892 5.98966 53.2892C4.8384 53.3974 3.68438 53.1131 2.71587 52.4828ZM48.9836 42.3172C46.946 42.3172 44.9083 42.3172 42.8164 42.3172C42.3518 42.3133 41.904 42.4902 41.568 42.8103C41.2319 43.1304 41.0341 43.5686 41.0165 44.0318C40.9553 46.1191 41.0165 48.22 41.0165 50.2802L48.9836 42.3172ZM10.3638 3.78285H12.4897C12.3538 3.10515 12.7953 2.31223 12.0618 1.87172C11.8609 1.77793 11.6418 1.72932 11.4199 1.72932C11.1981 1.72932 10.979 1.77793 10.7781 1.87172C10.0445 2.31223 10.4928 3.09159 10.3638 3.78285ZM40.5071 3.78285H42.6398C42.4971 3.10515 42.9454 2.30546 42.1983 1.86495C42.0056 1.77622 41.7959 1.73027 41.5836 1.73027C41.3714 1.73027 41.1616 1.77622 40.9689 1.86495C40.2014 2.25802 40.6225 3.05771 40.5071 3.77608V3.78285Z" fill="black"/>
<path d="M22.8342 35.452C23.7511 34.5304 24.6069 33.6493 25.4695 32.7819C27.5887 30.6584 29.7123 28.5417 31.8405 26.4318C32.293 25.966 32.87 25.6396 33.5029 25.4913C34.1358 25.343 34.7981 25.3792 35.4111 25.5954C36.024 25.8116 36.5619 26.1989 36.9608 26.7112C37.3597 27.2234 37.6028 27.8392 37.6613 28.4852C37.7229 28.938 37.6797 29.3989 37.5349 29.8325C37.39 30.266 37.1475 30.6606 36.8259 30.986C34.5913 33.263 29.7257 38.1101 27.4368 40.3601C27.3661 40.4557 27.2747 40.534 27.1694 40.5893C27.064 40.6446 26.9475 40.6754 26.8285 40.6793C26.7096 40.6832 26.5913 40.6602 26.4825 40.6119C26.3738 40.5637 26.2774 40.4915 26.2006 40.4007C25.7591 39.9534 25.9357 39.5197 26.3364 39.1266C28.4284 37.0438 33.1106 32.3617 35.189 30.2744C35.5068 29.9589 35.7544 29.5802 35.9158 29.1629C36.0231 28.821 36.0148 28.4532 35.8921 28.1165C35.7693 27.7797 35.539 27.4925 35.2366 27.2992C34.9326 27.11 34.5774 27.0195 34.2198 27.0401C33.8621 27.0608 33.5197 27.1916 33.2397 27.4144C33.0495 27.5703 32.8797 27.7533 32.7031 27.9227L24.0771 36.5296C23.1127 37.4852 22.5557 37.4852 21.598 36.5296C21.0547 35.9942 20.5249 35.4453 19.9747 34.9234C19.823 34.752 19.6377 34.6133 19.4302 34.5161C19.2227 34.4189 18.9974 34.3651 18.7683 34.3581C18.5392 34.3512 18.3111 34.3911 18.098 34.4755C17.885 34.5599 17.6915 34.687 17.5296 34.8489C17.365 35.0075 17.2342 35.1976 17.1448 35.4077C17.0555 35.6179 17.0094 35.8438 17.0094 36.0721C17.0094 36.3004 17.0555 36.5264 17.1448 36.7365C17.2342 36.9467 17.365 37.1368 17.5296 37.2954C18.888 38.6915 20.2623 40.0627 21.6524 41.4091C21.8112 41.5712 22.0016 41.6992 22.2119 41.7851C22.4222 41.871 22.6479 41.913 22.875 41.9086C23.1022 41.9041 23.3261 41.8533 23.5328 41.7592C23.7396 41.6652 23.9248 41.5299 24.0771 41.3616C24.7564 40.6839 25.4763 40.0062 26.1623 39.2811C26.5631 38.8812 26.9774 38.6034 27.5207 39.0574C28.0641 39.5115 27.9011 39.891 27.3577 40.4467C26.6785 41.1651 25.9518 41.8902 25.2182 42.5815C24.9051 42.9058 24.529 43.163 24.113 43.3375C23.6969 43.5119 23.2496 43.5999 22.7983 43.5961C22.347 43.5923 21.9012 43.4968 21.4881 43.3153C21.0751 43.1339 20.7034 42.8704 20.3958 42.5408C19.0374 41.2396 17.7401 39.9181 16.4293 38.583C16.0957 38.272 15.8284 37.897 15.6434 37.4805C15.4584 37.0641 15.3594 36.6146 15.3524 36.1591C15.3455 35.7036 15.4306 35.2514 15.6028 34.8295C15.775 34.4076 16.0307 34.0246 16.3545 33.7036C16.6784 33.3928 17.0608 33.1492 17.4797 32.987C17.8985 32.8247 18.3455 32.747 18.7947 32.7583C19.2438 32.7697 19.6863 32.8699 20.0964 33.0531C20.5065 33.2362 20.8761 33.4988 21.1837 33.8255C21.7067 34.3067 22.2229 34.8353 22.8342 35.452Z" fill="black"/>
</svg>
