<svg xmlns="http://www.w3.org/2000/svg" viewBox="0 0 21.01 23.53"><defs><style>.cls-1{fill:#010101;}</style></defs><g id="Layer_2" data-name="Layer 2"><g id="Layer_1-2" data-name="Layer 1"><circle class="cls-1" cx="14.29" cy="18.49" r="1.68"/><path class="cls-1" d="M20.82,18.05a7.24,7.24,0,0,0-6.53-4.6,7.22,7.22,0,0,0-4,1.32,7.3,7.3,0,0,0-2.58,3.28l-.19.44.19.44a7.3,7.3,0,0,0,2.58,3.28,7.22,7.22,0,0,0,4,1.32,7.24,7.24,0,0,0,6.53-4.6l.19-.44Zm-4.16,2.81a3.34,3.34,0,0,1-4.24.42,3.36,3.36,0,1,1,4.66-4.66,3.34,3.34,0,0,1-.42,4.24Z"/><path class="cls-1" d="M1.68,4.2H4.2V6.72H14.29V4.2h2.52v7.57h1.68V4.2a1.67,1.67,0,0,0-1.68-1.68H14.29V1.68A1.69,1.69,0,0,0,12.61,0H5.88A1.72,1.72,0,0,0,4.69.49,1.71,1.71,0,0,0,4.2,1.68v.84H1.68A1.72,1.72,0,0,0,.49,3,1.72,1.72,0,0,0,0,4.2V21.85A1.72,1.72,0,0,0,.49,23a1.72,1.72,0,0,0,1.19.49h4.2V21.85H1.68Zm4.2-2.52h6.73V5H5.88Z"/></g></g></svg>